<?xml version="1.0" encoding="utf-8" standalone="no"?>
<!DOCTYPE svg PUBLIC "-//W3C//DTD SVG 1.1//EN"
  "http://www.w3.org/Graphics/SVG/1.1/DTD/svg11.dtd">
<svg xmlns:xlink="http://www.w3.org/1999/xlink" width="576pt" height="576pt" viewBox="0 0 576 576" xmlns="http://www.w3.org/2000/svg" version="1.1">
 <metadata>
  <rdf:RDF xmlns:dc="http://purl.org/dc/elements/1.1/" xmlns:cc="http://creativecommons.org/ns#" xmlns:rdf="http://www.w3.org/1999/02/22-rdf-syntax-ns#">
   <cc:Work>
    <dc:type rdf:resource="http://purl.org/dc/dcmitype/StillImage"/>
    <dc:date>2024-03-29T08:21:45.270943</dc:date>
    <dc:format>image/svg+xml</dc:format>
    <dc:creator>
     <cc:Agent>
      <dc:title>Matplotlib v3.8.0, https://matplotlib.org/</dc:title>
     </cc:Agent>
    </dc:creator>
   </cc:Work>
  </rdf:RDF>
 </metadata>
 <defs>
  <style type="text/css">*{stroke-linejoin: round; stroke-linecap: butt}</style>
 </defs>
 <g id="figure_1">
  <g id="patch_1">
   <path d="M 0 576 
L 576 576 
L 576 0 
L 0 0 
z
" style="fill: #ffffff"/>
  </g>
  <g id="axes_1">
   <g id="patch_2">
    <path d="M 74.37 512.7 
L 556.56 512.7 
L 556.56 75.84 
L 74.37 75.84 
z
" style="fill: #ffffff"/>
   </g>
   <g id="matplotlib.axis_1">
    <g id="xtick_1">
     <g id="line2d_1">
      <defs>
       <path id="m028d726139" d="M 0 0 
L 0 9 
" style="stroke: #000000; stroke-width: 1.875"/>
      </defs>
      <g>
       <use xlink:href="#m028d726139" x="96.287727" y="512.7" style="stroke: #000000; stroke-width: 1.875"/>
      </g>
     </g>
     <g id="text_1">
      <!-- 0 -->
      <g transform="translate(91.417259 535.837813) scale(0.14 -0.14)">
       <defs>
        <path id="DejaVuSans-Bold-30" d="M 2944 2338 
Q 2944 3213 2780 3570 
Q 2616 3928 2228 3928 
Q 1841 3928 1675 3570 
Q 1509 3213 1509 2338 
Q 1509 1453 1675 1090 
Q 1841 728 2228 728 
Q 2613 728 2778 1090 
Q 2944 1453 2944 2338 
z
M 4147 2328 
Q 4147 1169 3647 539 
Q 3147 -91 2228 -91 
Q 1306 -91 806 539 
Q 306 1169 306 2328 
Q 306 3491 806 4120 
Q 1306 4750 2228 4750 
Q 3147 4750 3647 4120 
Q 4147 3491 4147 2328 
z
" transform="scale(0.015625)"/>
       </defs>
       <use xlink:href="#DejaVuSans-Bold-30"/>
      </g>
     </g>
    </g>
    <g id="xtick_2">
     <g id="line2d_2">
      <g>
       <use xlink:href="#m028d726139" x="188.572895" y="512.7" style="stroke: #000000; stroke-width: 1.875"/>
      </g>
     </g>
     <g id="text_2">
      <!-- 4 -->
      <g transform="translate(183.702426 535.837813) scale(0.14 -0.14)">
       <defs>
        <path id="DejaVuSans-Bold-34" d="M 2356 3675 
L 1038 1722 
L 2356 1722 
L 2356 3675 
z
M 2156 4666 
L 3494 4666 
L 3494 1722 
L 4159 1722 
L 4159 850 
L 3494 850 
L 3494 0 
L 2356 0 
L 2356 850 
L 288 850 
L 288 1881 
L 2156 4666 
z
" transform="scale(0.015625)"/>
       </defs>
       <use xlink:href="#DejaVuSans-Bold-34"/>
      </g>
     </g>
    </g>
    <g id="xtick_3">
     <g id="line2d_3">
      <g>
       <use xlink:href="#m028d726139" x="280.858062" y="512.7" style="stroke: #000000; stroke-width: 1.875"/>
      </g>
     </g>
     <g id="text_3">
      <!-- 8 -->
      <g transform="translate(275.987593 535.837813) scale(0.14 -0.14)">
       <defs>
        <path id="DejaVuSans-Bold-38" d="M 2228 2088 
Q 1891 2088 1709 1903 
Q 1528 1719 1528 1375 
Q 1528 1031 1709 848 
Q 1891 666 2228 666 
Q 2563 666 2741 848 
Q 2919 1031 2919 1375 
Q 2919 1722 2741 1905 
Q 2563 2088 2228 2088 
z
M 1350 2484 
Q 925 2613 709 2878 
Q 494 3144 494 3541 
Q 494 4131 934 4440 
Q 1375 4750 2228 4750 
Q 3075 4750 3515 4442 
Q 3956 4134 3956 3541 
Q 3956 3144 3739 2878 
Q 3522 2613 3097 2484 
Q 3572 2353 3814 2058 
Q 4056 1763 4056 1313 
Q 4056 619 3595 264 
Q 3134 -91 2228 -91 
Q 1319 -91 855 264 
Q 391 619 391 1313 
Q 391 1763 633 2058 
Q 875 2353 1350 2484 
z
M 1631 3419 
Q 1631 3141 1786 2991 
Q 1941 2841 2228 2841 
Q 2509 2841 2662 2991 
Q 2816 3141 2816 3419 
Q 2816 3697 2662 3845 
Q 2509 3994 2228 3994 
Q 1941 3994 1786 3844 
Q 1631 3694 1631 3419 
z
" transform="scale(0.015625)"/>
       </defs>
       <use xlink:href="#DejaVuSans-Bold-38"/>
      </g>
     </g>
    </g>
    <g id="xtick_4">
     <g id="line2d_4">
      <g>
       <use xlink:href="#m028d726139" x="373.14323" y="512.7" style="stroke: #000000; stroke-width: 1.875"/>
      </g>
     </g>
     <g id="text_4">
      <!-- 12 -->
      <g transform="translate(363.402292 535.837813) scale(0.14 -0.14)">
       <defs>
        <path id="DejaVuSans-Bold-31" d="M 750 831 
L 1813 831 
L 1813 3847 
L 722 3622 
L 722 4441 
L 1806 4666 
L 2950 4666 
L 2950 831 
L 4013 831 
L 4013 0 
L 750 0 
L 750 831 
z
" transform="scale(0.015625)"/>
        <path id="DejaVuSans-Bold-32" d="M 1844 884 
L 3897 884 
L 3897 0 
L 506 0 
L 506 884 
L 2209 2388 
Q 2438 2594 2547 2791 
Q 2656 2988 2656 3200 
Q 2656 3528 2436 3728 
Q 2216 3928 1850 3928 
Q 1569 3928 1234 3808 
Q 900 3688 519 3450 
L 519 4475 
Q 925 4609 1322 4679 
Q 1719 4750 2100 4750 
Q 2938 4750 3402 4381 
Q 3866 4013 3866 3353 
Q 3866 2972 3669 2642 
Q 3472 2313 2841 1759 
L 1844 884 
z
" transform="scale(0.015625)"/>
       </defs>
       <use xlink:href="#DejaVuSans-Bold-31"/>
       <use xlink:href="#DejaVuSans-Bold-32" x="69.580078"/>
      </g>
     </g>
    </g>
    <g id="xtick_5">
     <g id="line2d_5">
      <g>
       <use xlink:href="#m028d726139" x="465.428397" y="512.7" style="stroke: #000000; stroke-width: 1.875"/>
      </g>
     </g>
     <g id="text_5">
      <!-- 16 -->
      <g transform="translate(455.68746 535.837813) scale(0.14 -0.14)">
       <defs>
        <path id="DejaVuSans-Bold-36" d="M 2316 2303 
Q 2000 2303 1842 2098 
Q 1684 1894 1684 1484 
Q 1684 1075 1842 870 
Q 2000 666 2316 666 
Q 2634 666 2792 870 
Q 2950 1075 2950 1484 
Q 2950 1894 2792 2098 
Q 2634 2303 2316 2303 
z
M 3803 4544 
L 3803 3681 
Q 3506 3822 3243 3889 
Q 2981 3956 2731 3956 
Q 2194 3956 1894 3657 
Q 1594 3359 1544 2772 
Q 1750 2925 1990 3001 
Q 2231 3078 2516 3078 
Q 3231 3078 3670 2659 
Q 4109 2241 4109 1563 
Q 4109 813 3618 361 
Q 3128 -91 2303 -91 
Q 1394 -91 895 523 
Q 397 1138 397 2266 
Q 397 3422 980 4083 
Q 1563 4744 2578 4744 
Q 2900 4744 3203 4694 
Q 3506 4644 3803 4544 
z
" transform="scale(0.015625)"/>
       </defs>
       <use xlink:href="#DejaVuSans-Bold-31"/>
       <use xlink:href="#DejaVuSans-Bold-36" x="69.580078"/>
      </g>
     </g>
    </g>
    <g id="text_6">
     <!-- Number of iterations -->
     <g transform="translate(233.018125 553.387187) scale(0.14 -0.14)">
      <defs>
       <path id="DejaVuSans-Bold-4e" d="M 588 4666 
L 1931 4666 
L 3628 1466 
L 3628 4666 
L 4769 4666 
L 4769 0 
L 3425 0 
L 1728 3200 
L 1728 0 
L 588 0 
L 588 4666 
z
" transform="scale(0.015625)"/>
       <path id="DejaVuSans-Bold-75" d="M 500 1363 
L 500 3500 
L 1625 3500 
L 1625 3150 
Q 1625 2866 1622 2436 
Q 1619 2006 1619 1863 
Q 1619 1441 1641 1255 
Q 1663 1069 1716 984 
Q 1784 875 1895 815 
Q 2006 756 2150 756 
Q 2500 756 2700 1025 
Q 2900 1294 2900 1772 
L 2900 3500 
L 4019 3500 
L 4019 0 
L 2900 0 
L 2900 506 
Q 2647 200 2364 54 
Q 2081 -91 1741 -91 
Q 1134 -91 817 281 
Q 500 653 500 1363 
z
" transform="scale(0.015625)"/>
       <path id="DejaVuSans-Bold-6d" d="M 3781 2919 
Q 3994 3244 4286 3414 
Q 4578 3584 4928 3584 
Q 5531 3584 5847 3212 
Q 6163 2841 6163 2131 
L 6163 0 
L 5038 0 
L 5038 1825 
Q 5041 1866 5042 1909 
Q 5044 1953 5044 2034 
Q 5044 2406 4934 2573 
Q 4825 2741 4581 2741 
Q 4263 2741 4089 2478 
Q 3916 2216 3909 1719 
L 3909 0 
L 2784 0 
L 2784 1825 
Q 2784 2406 2684 2573 
Q 2584 2741 2328 2741 
Q 2006 2741 1831 2477 
Q 1656 2213 1656 1722 
L 1656 0 
L 531 0 
L 531 3500 
L 1656 3500 
L 1656 2988 
Q 1863 3284 2130 3434 
Q 2397 3584 2719 3584 
Q 3081 3584 3359 3409 
Q 3638 3234 3781 2919 
z
" transform="scale(0.015625)"/>
       <path id="DejaVuSans-Bold-62" d="M 2400 722 
Q 2759 722 2948 984 
Q 3138 1247 3138 1747 
Q 3138 2247 2948 2509 
Q 2759 2772 2400 2772 
Q 2041 2772 1848 2508 
Q 1656 2244 1656 1747 
Q 1656 1250 1848 986 
Q 2041 722 2400 722 
z
M 1656 2988 
Q 1888 3294 2169 3439 
Q 2450 3584 2816 3584 
Q 3463 3584 3878 3070 
Q 4294 2556 4294 1747 
Q 4294 938 3878 423 
Q 3463 -91 2816 -91 
Q 2450 -91 2169 54 
Q 1888 200 1656 506 
L 1656 0 
L 538 0 
L 538 4863 
L 1656 4863 
L 1656 2988 
z
" transform="scale(0.015625)"/>
       <path id="DejaVuSans-Bold-65" d="M 4031 1759 
L 4031 1441 
L 1416 1441 
Q 1456 1047 1700 850 
Q 1944 653 2381 653 
Q 2734 653 3104 758 
Q 3475 863 3866 1075 
L 3866 213 
Q 3469 63 3072 -14 
Q 2675 -91 2278 -91 
Q 1328 -91 801 392 
Q 275 875 275 1747 
Q 275 2603 792 3093 
Q 1309 3584 2216 3584 
Q 3041 3584 3536 3087 
Q 4031 2591 4031 1759 
z
M 2881 2131 
Q 2881 2450 2695 2645 
Q 2509 2841 2209 2841 
Q 1884 2841 1681 2658 
Q 1478 2475 1428 2131 
L 2881 2131 
z
" transform="scale(0.015625)"/>
       <path id="DejaVuSans-Bold-72" d="M 3138 2547 
Q 2991 2616 2845 2648 
Q 2700 2681 2553 2681 
Q 2122 2681 1889 2404 
Q 1656 2128 1656 1613 
L 1656 0 
L 538 0 
L 538 3500 
L 1656 3500 
L 1656 2925 
Q 1872 3269 2151 3426 
Q 2431 3584 2822 3584 
Q 2878 3584 2943 3579 
Q 3009 3575 3134 3559 
L 3138 2547 
z
" transform="scale(0.015625)"/>
       <path id="DejaVuSans-Bold-20" transform="scale(0.015625)"/>
       <path id="DejaVuSans-Bold-6f" d="M 2203 2784 
Q 1831 2784 1636 2517 
Q 1441 2250 1441 1747 
Q 1441 1244 1636 976 
Q 1831 709 2203 709 
Q 2569 709 2762 976 
Q 2956 1244 2956 1747 
Q 2956 2250 2762 2517 
Q 2569 2784 2203 2784 
z
M 2203 3584 
Q 3106 3584 3614 3096 
Q 4122 2609 4122 1747 
Q 4122 884 3614 396 
Q 3106 -91 2203 -91 
Q 1297 -91 786 396 
Q 275 884 275 1747 
Q 275 2609 786 3096 
Q 1297 3584 2203 3584 
z
" transform="scale(0.015625)"/>
       <path id="DejaVuSans-Bold-66" d="M 2841 4863 
L 2841 4128 
L 2222 4128 
Q 1984 4128 1890 4042 
Q 1797 3956 1797 3744 
L 1797 3500 
L 2753 3500 
L 2753 2700 
L 1797 2700 
L 1797 0 
L 678 0 
L 678 2700 
L 122 2700 
L 122 3500 
L 678 3500 
L 678 3744 
Q 678 4316 997 4589 
Q 1316 4863 1984 4863 
L 2841 4863 
z
" transform="scale(0.015625)"/>
       <path id="DejaVuSans-Bold-69" d="M 538 3500 
L 1656 3500 
L 1656 0 
L 538 0 
L 538 3500 
z
M 538 4863 
L 1656 4863 
L 1656 3950 
L 538 3950 
L 538 4863 
z
" transform="scale(0.015625)"/>
       <path id="DejaVuSans-Bold-74" d="M 1759 4494 
L 1759 3500 
L 2913 3500 
L 2913 2700 
L 1759 2700 
L 1759 1216 
Q 1759 972 1856 886 
Q 1953 800 2241 800 
L 2816 800 
L 2816 0 
L 1856 0 
Q 1194 0 917 276 
Q 641 553 641 1216 
L 641 2700 
L 84 2700 
L 84 3500 
L 641 3500 
L 641 4494 
L 1759 4494 
z
" transform="scale(0.015625)"/>
       <path id="DejaVuSans-Bold-61" d="M 2106 1575 
Q 1756 1575 1579 1456 
Q 1403 1338 1403 1106 
Q 1403 894 1545 773 
Q 1688 653 1941 653 
Q 2256 653 2472 879 
Q 2688 1106 2688 1447 
L 2688 1575 
L 2106 1575 
z
M 3816 1997 
L 3816 0 
L 2688 0 
L 2688 519 
Q 2463 200 2181 54 
Q 1900 -91 1497 -91 
Q 953 -91 614 226 
Q 275 544 275 1050 
Q 275 1666 698 1953 
Q 1122 2241 2028 2241 
L 2688 2241 
L 2688 2328 
Q 2688 2594 2478 2717 
Q 2269 2841 1825 2841 
Q 1466 2841 1156 2769 
Q 847 2697 581 2553 
L 581 3406 
Q 941 3494 1303 3539 
Q 1666 3584 2028 3584 
Q 2975 3584 3395 3211 
Q 3816 2838 3816 1997 
z
" transform="scale(0.015625)"/>
       <path id="DejaVuSans-Bold-6e" d="M 4056 2131 
L 4056 0 
L 2931 0 
L 2931 347 
L 2931 1631 
Q 2931 2084 2911 2256 
Q 2891 2428 2841 2509 
Q 2775 2619 2662 2680 
Q 2550 2741 2406 2741 
Q 2056 2741 1856 2470 
Q 1656 2200 1656 1722 
L 1656 0 
L 538 0 
L 538 3500 
L 1656 3500 
L 1656 2988 
Q 1909 3294 2193 3439 
Q 2478 3584 2822 3584 
Q 3428 3584 3742 3212 
Q 4056 2841 4056 2131 
z
" transform="scale(0.015625)"/>
       <path id="DejaVuSans-Bold-73" d="M 3272 3391 
L 3272 2541 
Q 2913 2691 2578 2766 
Q 2244 2841 1947 2841 
Q 1628 2841 1473 2761 
Q 1319 2681 1319 2516 
Q 1319 2381 1436 2309 
Q 1553 2238 1856 2203 
L 2053 2175 
Q 2913 2066 3209 1816 
Q 3506 1566 3506 1031 
Q 3506 472 3093 190 
Q 2681 -91 1863 -91 
Q 1516 -91 1145 -36 
Q 775 19 384 128 
L 384 978 
Q 719 816 1070 734 
Q 1422 653 1784 653 
Q 2113 653 2278 743 
Q 2444 834 2444 1013 
Q 2444 1163 2330 1236 
Q 2216 1309 1875 1350 
L 1678 1375 
Q 931 1469 631 1722 
Q 331 1975 331 2491 
Q 331 3047 712 3315 
Q 1094 3584 1881 3584 
Q 2191 3584 2531 3537 
Q 2872 3491 3272 3391 
z
" transform="scale(0.015625)"/>
      </defs>
      <use xlink:href="#DejaVuSans-Bold-4e"/>
      <use xlink:href="#DejaVuSans-Bold-75" x="83.691406"/>
      <use xlink:href="#DejaVuSans-Bold-6d" x="154.882812"/>
      <use xlink:href="#DejaVuSans-Bold-62" x="259.082031"/>
      <use xlink:href="#DejaVuSans-Bold-65" x="330.664062"/>
      <use xlink:href="#DejaVuSans-Bold-72" x="398.486328"/>
      <use xlink:href="#DejaVuSans-Bold-20" x="447.802734"/>
      <use xlink:href="#DejaVuSans-Bold-6f" x="482.617188"/>
      <use xlink:href="#DejaVuSans-Bold-66" x="551.318359"/>
      <use xlink:href="#DejaVuSans-Bold-20" x="594.824219"/>
      <use xlink:href="#DejaVuSans-Bold-69" x="629.638672"/>
      <use xlink:href="#DejaVuSans-Bold-74" x="663.916016"/>
      <use xlink:href="#DejaVuSans-Bold-65" x="711.71875"/>
      <use xlink:href="#DejaVuSans-Bold-72" x="779.541016"/>
      <use xlink:href="#DejaVuSans-Bold-61" x="828.857422"/>
      <use xlink:href="#DejaVuSans-Bold-74" x="896.337891"/>
      <use xlink:href="#DejaVuSans-Bold-69" x="944.140625"/>
      <use xlink:href="#DejaVuSans-Bold-6f" x="978.417969"/>
      <use xlink:href="#DejaVuSans-Bold-6e" x="1047.119141"/>
      <use xlink:href="#DejaVuSans-Bold-73" x="1118.310547"/>
     </g>
    </g>
   </g>
   <g id="matplotlib.axis_2">
    <g id="ytick_1">
     <g id="line2d_6">
      <defs>
       <path id="m0eb24368b6" d="M 0 0 
L -9 0 
" style="stroke: #000000; stroke-width: 1.875"/>
      </defs>
      <g>
       <use xlink:href="#m0eb24368b6" x="74.37" y="458.70871" style="stroke: #000000; stroke-width: 1.875"/>
      </g>
     </g>
     <g id="text_7">
      <!-- 1.2 -->
      <g transform="translate(37.070313 464.027616) scale(0.14 -0.14)">
       <defs>
        <path id="DejaVuSans-Bold-2e" d="M 653 1209 
L 1778 1209 
L 1778 0 
L 653 0 
L 653 1209 
z
" transform="scale(0.015625)"/>
       </defs>
       <use xlink:href="#DejaVuSans-Bold-31"/>
       <use xlink:href="#DejaVuSans-Bold-2e" x="69.580078"/>
       <use xlink:href="#DejaVuSans-Bold-32" x="107.568359"/>
      </g>
     </g>
    </g>
    <g id="ytick_2">
     <g id="line2d_7">
      <g>
       <use xlink:href="#m0eb24368b6" x="74.37" y="350.72613" style="stroke: #000000; stroke-width: 1.875"/>
      </g>
     </g>
     <g id="text_8">
      <!-- 1.4 -->
      <g transform="translate(37.070313 356.045036) scale(0.14 -0.14)">
       <use xlink:href="#DejaVuSans-Bold-31"/>
       <use xlink:href="#DejaVuSans-Bold-2e" x="69.580078"/>
       <use xlink:href="#DejaVuSans-Bold-34" x="107.568359"/>
      </g>
     </g>
    </g>
    <g id="ytick_3">
     <g id="line2d_8">
      <g>
       <use xlink:href="#m0eb24368b6" x="74.37" y="242.74355" style="stroke: #000000; stroke-width: 1.875"/>
      </g>
     </g>
     <g id="text_9">
      <!-- 1.6 -->
      <g transform="translate(37.070313 248.062456) scale(0.14 -0.14)">
       <use xlink:href="#DejaVuSans-Bold-31"/>
       <use xlink:href="#DejaVuSans-Bold-2e" x="69.580078"/>
       <use xlink:href="#DejaVuSans-Bold-36" x="107.568359"/>
      </g>
     </g>
    </g>
    <g id="ytick_4">
     <g id="line2d_9">
      <g>
       <use xlink:href="#m0eb24368b6" x="74.37" y="134.76097" style="stroke: #000000; stroke-width: 1.875"/>
      </g>
     </g>
     <g id="text_10">
      <!-- 1.8 -->
      <g transform="translate(37.070313 140.079876) scale(0.14 -0.14)">
       <use xlink:href="#DejaVuSans-Bold-31"/>
       <use xlink:href="#DejaVuSans-Bold-2e" x="69.580078"/>
       <use xlink:href="#DejaVuSans-Bold-38" x="107.568359"/>
      </g>
     </g>
    </g>
    <g id="text_11">
     <!-- Best Observed Value -->
     <g transform="translate(30.15875 376.275) rotate(-90) scale(0.14 -0.14)">
      <defs>
       <path id="DejaVuSans-Bold-42" d="M 2456 2859 
Q 2741 2859 2887 2984 
Q 3034 3109 3034 3353 
Q 3034 3594 2887 3720 
Q 2741 3847 2456 3847 
L 1791 3847 
L 1791 2859 
L 2456 2859 
z
M 2497 819 
Q 2859 819 3042 972 
Q 3225 1125 3225 1434 
Q 3225 1738 3044 1889 
Q 2863 2041 2497 2041 
L 1791 2041 
L 1791 819 
L 2497 819 
z
M 3616 2497 
Q 4003 2384 4215 2081 
Q 4428 1778 4428 1338 
Q 4428 663 3972 331 
Q 3516 0 2584 0 
L 588 0 
L 588 4666 
L 2394 4666 
Q 3366 4666 3802 4372 
Q 4238 4078 4238 3431 
Q 4238 3091 4078 2852 
Q 3919 2613 3616 2497 
z
" transform="scale(0.015625)"/>
       <path id="DejaVuSans-Bold-4f" d="M 2719 3878 
Q 2169 3878 1866 3472 
Q 1563 3066 1563 2328 
Q 1563 1594 1866 1187 
Q 2169 781 2719 781 
Q 3272 781 3575 1187 
Q 3878 1594 3878 2328 
Q 3878 3066 3575 3472 
Q 3272 3878 2719 3878 
z
M 2719 4750 
Q 3844 4750 4481 4106 
Q 5119 3463 5119 2328 
Q 5119 1197 4481 553 
Q 3844 -91 2719 -91 
Q 1597 -91 958 553 
Q 319 1197 319 2328 
Q 319 3463 958 4106 
Q 1597 4750 2719 4750 
z
" transform="scale(0.015625)"/>
       <path id="DejaVuSans-Bold-76" d="M 97 3500 
L 1216 3500 
L 2088 1081 
L 2956 3500 
L 4078 3500 
L 2700 0 
L 1472 0 
L 97 3500 
z
" transform="scale(0.015625)"/>
       <path id="DejaVuSans-Bold-64" d="M 2919 2988 
L 2919 4863 
L 4044 4863 
L 4044 0 
L 2919 0 
L 2919 506 
Q 2688 197 2409 53 
Q 2131 -91 1766 -91 
Q 1119 -91 703 423 
Q 288 938 288 1747 
Q 288 2556 703 3070 
Q 1119 3584 1766 3584 
Q 2128 3584 2408 3439 
Q 2688 3294 2919 2988 
z
M 2181 722 
Q 2541 722 2730 984 
Q 2919 1247 2919 1747 
Q 2919 2247 2730 2509 
Q 2541 2772 2181 2772 
Q 1825 2772 1636 2509 
Q 1447 2247 1447 1747 
Q 1447 1247 1636 984 
Q 1825 722 2181 722 
z
" transform="scale(0.015625)"/>
       <path id="DejaVuSans-Bold-56" d="M 31 4666 
L 1241 4666 
L 2478 1222 
L 3713 4666 
L 4922 4666 
L 3194 0 
L 1759 0 
L 31 4666 
z
" transform="scale(0.015625)"/>
       <path id="DejaVuSans-Bold-6c" d="M 538 4863 
L 1656 4863 
L 1656 0 
L 538 0 
L 538 4863 
z
" transform="scale(0.015625)"/>
      </defs>
      <use xlink:href="#DejaVuSans-Bold-42"/>
      <use xlink:href="#DejaVuSans-Bold-65" x="76.220703"/>
      <use xlink:href="#DejaVuSans-Bold-73" x="144.042969"/>
      <use xlink:href="#DejaVuSans-Bold-74" x="203.564453"/>
      <use xlink:href="#DejaVuSans-Bold-20" x="251.367188"/>
      <use xlink:href="#DejaVuSans-Bold-4f" x="286.181641"/>
      <use xlink:href="#DejaVuSans-Bold-62" x="371.191406"/>
      <use xlink:href="#DejaVuSans-Bold-73" x="442.773438"/>
      <use xlink:href="#DejaVuSans-Bold-65" x="502.294922"/>
      <use xlink:href="#DejaVuSans-Bold-72" x="570.117188"/>
      <use xlink:href="#DejaVuSans-Bold-76" x="619.433594"/>
      <use xlink:href="#DejaVuSans-Bold-65" x="684.619141"/>
      <use xlink:href="#DejaVuSans-Bold-64" x="752.441406"/>
      <use xlink:href="#DejaVuSans-Bold-20" x="824.023438"/>
      <use xlink:href="#DejaVuSans-Bold-56" x="858.837891"/>
      <use xlink:href="#DejaVuSans-Bold-61" x="930.730469"/>
      <use xlink:href="#DejaVuSans-Bold-6c" x="998.210938"/>
      <use xlink:href="#DejaVuSans-Bold-75" x="1032.488281"/>
      <use xlink:href="#DejaVuSans-Bold-65" x="1103.679688"/>
     </g>
    </g>
   </g>
   <g id="LineCollection_1">
    <path d="M 96.287727 400.075382 
L 96.287727 326.606873 
" clip-path="url(#p6cff1e0d32)" style="fill: none; stroke: #a6cee3; stroke-width: 1.5"/>
    <path d="M 119.359019 346.769998 
L 119.359019 275.58495 
" clip-path="url(#p6cff1e0d32)" style="fill: none; stroke: #a6cee3; stroke-width: 1.5"/>
    <path d="M 142.430311 300.374931 
L 142.430311 236.913135 
" clip-path="url(#p6cff1e0d32)" style="fill: none; stroke: #a6cee3; stroke-width: 1.5"/>
    <path d="M 165.501603 281.410709 
L 165.501603 219.67489 
" clip-path="url(#p6cff1e0d32)" style="fill: none; stroke: #a6cee3; stroke-width: 1.5"/>
    <path d="M 188.572895 240.317165 
L 188.572895 182.121695 
" clip-path="url(#p6cff1e0d32)" style="fill: none; stroke: #a6cee3; stroke-width: 1.5"/>
    <path d="M 211.644187 225.864221 
L 211.644187 171.429083 
" clip-path="url(#p6cff1e0d32)" style="fill: none; stroke: #a6cee3; stroke-width: 1.5"/>
    <path d="M 234.715478 213.303157 
L 234.715478 160.806301 
" clip-path="url(#p6cff1e0d32)" style="fill: none; stroke: #a6cee3; stroke-width: 1.5"/>
    <path d="M 257.78677 205.952293 
L 257.78677 153.533509 
" clip-path="url(#p6cff1e0d32)" style="fill: none; stroke: #a6cee3; stroke-width: 1.5"/>
    <path d="M 280.858062 186.035803 
L 280.858062 142.59765 
" clip-path="url(#p6cff1e0d32)" style="fill: none; stroke: #a6cee3; stroke-width: 1.5"/>
    <path d="M 303.929354 185.855609 
L 303.929354 142.421169 
" clip-path="url(#p6cff1e0d32)" style="fill: none; stroke: #a6cee3; stroke-width: 1.5"/>
    <path d="M 327.000646 176.828457 
L 327.000646 134.327943 
" clip-path="url(#p6cff1e0d32)" style="fill: none; stroke: #a6cee3; stroke-width: 1.5"/>
    <path d="M 350.071938 168.93916 
L 350.071938 125.275199 
" clip-path="url(#p6cff1e0d32)" style="fill: none; stroke: #a6cee3; stroke-width: 1.5"/>
    <path d="M 373.14323 167.476617 
L 373.14323 123.170995 
" clip-path="url(#p6cff1e0d32)" style="fill: none; stroke: #a6cee3; stroke-width: 1.5"/>
    <path d="M 396.214522 161.853817 
L 396.214522 119.34192 
" clip-path="url(#p6cff1e0d32)" style="fill: none; stroke: #a6cee3; stroke-width: 1.5"/>
    <path d="M 419.285813 153.302804 
L 419.285813 111.842578 
" clip-path="url(#p6cff1e0d32)" style="fill: none; stroke: #a6cee3; stroke-width: 1.5"/>
    <path d="M 442.357105 150.078627 
L 442.357105 110.251648 
" clip-path="url(#p6cff1e0d32)" style="fill: none; stroke: #a6cee3; stroke-width: 1.5"/>
    <path d="M 465.428397 144.267059 
L 465.428397 105.541317 
" clip-path="url(#p6cff1e0d32)" style="fill: none; stroke: #a6cee3; stroke-width: 1.5"/>
    <path d="M 488.499689 131.641223 
L 488.499689 100.333425 
" clip-path="url(#p6cff1e0d32)" style="fill: none; stroke: #a6cee3; stroke-width: 1.5"/>
    <path d="M 511.570981 128.904845 
L 511.570981 98.254697 
" clip-path="url(#p6cff1e0d32)" style="fill: none; stroke: #a6cee3; stroke-width: 1.5"/>
    <path d="M 534.642273 124.566657 
L 534.642273 94.211033 
" clip-path="url(#p6cff1e0d32)" style="fill: none; stroke: #a6cee3; stroke-width: 1.5"/>
   </g>
   <g id="LineCollection_2">
    <path d="M 96.287727 419.794201 
L 96.287727 350.40235 
" clip-path="url(#p6cff1e0d32)" style="fill: none; stroke: #1f78b4; stroke-width: 1.5"/>
    <path d="M 119.359019 354.392067 
L 119.359019 279.376467 
" clip-path="url(#p6cff1e0d32)" style="fill: none; stroke: #1f78b4; stroke-width: 1.5"/>
    <path d="M 142.430311 331.258514 
L 142.430311 256.142327 
" clip-path="url(#p6cff1e0d32)" style="fill: none; stroke: #1f78b4; stroke-width: 1.5"/>
    <path d="M 165.501603 295.000903 
L 165.501603 224.988448 
" clip-path="url(#p6cff1e0d32)" style="fill: none; stroke: #1f78b4; stroke-width: 1.5"/>
    <path d="M 188.572895 259.925061 
L 188.572895 195.86287 
" clip-path="url(#p6cff1e0d32)" style="fill: none; stroke: #1f78b4; stroke-width: 1.5"/>
    <path d="M 211.644187 250.830603 
L 211.644187 186.410251 
" clip-path="url(#p6cff1e0d32)" style="fill: none; stroke: #1f78b4; stroke-width: 1.5"/>
    <path d="M 234.715478 208.495823 
L 234.715478 155.983423 
" clip-path="url(#p6cff1e0d32)" style="fill: none; stroke: #1f78b4; stroke-width: 1.5"/>
    <path d="M 257.78677 194.193676 
L 257.78677 141.573267 
" clip-path="url(#p6cff1e0d32)" style="fill: none; stroke: #1f78b4; stroke-width: 1.5"/>
    <path d="M 280.858062 183.921712 
L 280.858062 134.368179 
" clip-path="url(#p6cff1e0d32)" style="fill: none; stroke: #1f78b4; stroke-width: 1.5"/>
    <path d="M 303.929354 174.864921 
L 303.929354 130.406348 
" clip-path="url(#p6cff1e0d32)" style="fill: none; stroke: #1f78b4; stroke-width: 1.5"/>
    <path d="M 327.000646 160.891441 
L 327.000646 122.62268 
" clip-path="url(#p6cff1e0d32)" style="fill: none; stroke: #1f78b4; stroke-width: 1.5"/>
    <path d="M 350.071938 153.795529 
L 350.071938 116.521634 
" clip-path="url(#p6cff1e0d32)" style="fill: none; stroke: #1f78b4; stroke-width: 1.5"/>
    <path d="M 373.14323 149.356447 
L 373.14323 113.113876 
" clip-path="url(#p6cff1e0d32)" style="fill: none; stroke: #1f78b4; stroke-width: 1.5"/>
    <path d="M 396.214522 147.674055 
L 396.214522 112.121209 
" clip-path="url(#p6cff1e0d32)" style="fill: none; stroke: #1f78b4; stroke-width: 1.5"/>
    <path d="M 419.285813 147.466896 
L 419.285813 111.971693 
" clip-path="url(#p6cff1e0d32)" style="fill: none; stroke: #1f78b4; stroke-width: 1.5"/>
    <path d="M 442.357105 145.300757 
L 442.357105 109.501063 
" clip-path="url(#p6cff1e0d32)" style="fill: none; stroke: #1f78b4; stroke-width: 1.5"/>
    <path d="M 465.428397 139.877457 
L 465.428397 104.937475 
" clip-path="url(#p6cff1e0d32)" style="fill: none; stroke: #1f78b4; stroke-width: 1.5"/>
    <path d="M 488.499689 135.832327 
L 488.499689 104.345836 
" clip-path="url(#p6cff1e0d32)" style="fill: none; stroke: #1f78b4; stroke-width: 1.5"/>
    <path d="M 511.570981 129.48686 
L 511.570981 99.456054 
" clip-path="url(#p6cff1e0d32)" style="fill: none; stroke: #1f78b4; stroke-width: 1.5"/>
    <path d="M 534.642273 121.308399 
L 534.642273 95.329243 
" clip-path="url(#p6cff1e0d32)" style="fill: none; stroke: #1f78b4; stroke-width: 1.5"/>
   </g>
   <g id="LineCollection_3">
    <path d="M 96.287727 415.586469 
L 96.287727 354.431745 
" clip-path="url(#p6cff1e0d32)" style="fill: none; stroke: #b2df8a; stroke-width: 1.5"/>
    <path d="M 119.359019 362.85395 
L 119.359019 292.315057 
" clip-path="url(#p6cff1e0d32)" style="fill: none; stroke: #b2df8a; stroke-width: 1.5"/>
    <path d="M 142.430311 335.901308 
L 142.430311 269.868273 
" clip-path="url(#p6cff1e0d32)" style="fill: none; stroke: #b2df8a; stroke-width: 1.5"/>
    <path d="M 165.501603 306.250393 
L 165.501603 246.553016 
" clip-path="url(#p6cff1e0d32)" style="fill: none; stroke: #b2df8a; stroke-width: 1.5"/>
    <path d="M 188.572895 294.789169 
L 188.572895 234.830395 
" clip-path="url(#p6cff1e0d32)" style="fill: none; stroke: #b2df8a; stroke-width: 1.5"/>
    <path d="M 211.644187 285.333902 
L 211.644187 225.203573 
" clip-path="url(#p6cff1e0d32)" style="fill: none; stroke: #b2df8a; stroke-width: 1.5"/>
    <path d="M 234.715478 270.142705 
L 234.715478 214.357528 
" clip-path="url(#p6cff1e0d32)" style="fill: none; stroke: #b2df8a; stroke-width: 1.5"/>
    <path d="M 257.78677 250.581072 
L 257.78677 198.251705 
" clip-path="url(#p6cff1e0d32)" style="fill: none; stroke: #b2df8a; stroke-width: 1.5"/>
    <path d="M 280.858062 238.258779 
L 280.858062 186.320129 
" clip-path="url(#p6cff1e0d32)" style="fill: none; stroke: #b2df8a; stroke-width: 1.5"/>
    <path d="M 303.929354 228.221134 
L 303.929354 175.848987 
" clip-path="url(#p6cff1e0d32)" style="fill: none; stroke: #b2df8a; stroke-width: 1.5"/>
    <path d="M 327.000646 217.376867 
L 327.000646 168.502851 
" clip-path="url(#p6cff1e0d32)" style="fill: none; stroke: #b2df8a; stroke-width: 1.5"/>
    <path d="M 350.071938 211.976834 
L 350.071938 162.489299 
" clip-path="url(#p6cff1e0d32)" style="fill: none; stroke: #b2df8a; stroke-width: 1.5"/>
    <path d="M 373.14323 204.126869 
L 373.14323 156.072282 
" clip-path="url(#p6cff1e0d32)" style="fill: none; stroke: #b2df8a; stroke-width: 1.5"/>
    <path d="M 396.214522 193.097236 
L 396.214522 148.019826 
" clip-path="url(#p6cff1e0d32)" style="fill: none; stroke: #b2df8a; stroke-width: 1.5"/>
    <path d="M 419.285813 186.365039 
L 419.285813 144.408461 
" clip-path="url(#p6cff1e0d32)" style="fill: none; stroke: #b2df8a; stroke-width: 1.5"/>
    <path d="M 442.357105 183.11961 
L 442.357105 142.660447 
" clip-path="url(#p6cff1e0d32)" style="fill: none; stroke: #b2df8a; stroke-width: 1.5"/>
    <path d="M 465.428397 181.964593 
L 465.428397 142.388765 
" clip-path="url(#p6cff1e0d32)" style="fill: none; stroke: #b2df8a; stroke-width: 1.5"/>
    <path d="M 488.499689 178.732796 
L 488.499689 140.270444 
" clip-path="url(#p6cff1e0d32)" style="fill: none; stroke: #b2df8a; stroke-width: 1.5"/>
    <path d="M 511.570981 173.237485 
L 511.570981 133.995495 
" clip-path="url(#p6cff1e0d32)" style="fill: none; stroke: #b2df8a; stroke-width: 1.5"/>
    <path d="M 534.642273 170.69476 
L 534.642273 129.939741 
" clip-path="url(#p6cff1e0d32)" style="fill: none; stroke: #b2df8a; stroke-width: 1.5"/>
   </g>
   <g id="LineCollection_4">
    <path d="M 96.287727 426.96435 
L 96.287727 363.56265 
" clip-path="url(#p6cff1e0d32)" style="fill: none; stroke: #33a02c; stroke-width: 1.5"/>
    <path d="M 119.359019 372.870902 
L 119.359019 303.341904 
" clip-path="url(#p6cff1e0d32)" style="fill: none; stroke: #33a02c; stroke-width: 1.5"/>
    <path d="M 142.430311 334.929024 
L 142.430311 263.707066 
" clip-path="url(#p6cff1e0d32)" style="fill: none; stroke: #33a02c; stroke-width: 1.5"/>
    <path d="M 165.501603 315.685544 
L 165.501603 245.499718 
" clip-path="url(#p6cff1e0d32)" style="fill: none; stroke: #33a02c; stroke-width: 1.5"/>
    <path d="M 188.572895 298.465466 
L 188.572895 232.93747 
" clip-path="url(#p6cff1e0d32)" style="fill: none; stroke: #33a02c; stroke-width: 1.5"/>
    <path d="M 211.644187 286.32465 
L 211.644187 224.391162 
" clip-path="url(#p6cff1e0d32)" style="fill: none; stroke: #33a02c; stroke-width: 1.5"/>
    <path d="M 234.715478 274.123338 
L 234.715478 217.688723 
" clip-path="url(#p6cff1e0d32)" style="fill: none; stroke: #33a02c; stroke-width: 1.5"/>
    <path d="M 257.78677 264.891205 
L 257.78677 210.513826 
" clip-path="url(#p6cff1e0d32)" style="fill: none; stroke: #33a02c; stroke-width: 1.5"/>
    <path d="M 280.858062 247.815952 
L 280.858062 196.915068 
" clip-path="url(#p6cff1e0d32)" style="fill: none; stroke: #33a02c; stroke-width: 1.5"/>
    <path d="M 303.929354 239.306175 
L 303.929354 191.3362 
" clip-path="url(#p6cff1e0d32)" style="fill: none; stroke: #33a02c; stroke-width: 1.5"/>
    <path d="M 327.000646 230.579421 
L 327.000646 184.54761 
" clip-path="url(#p6cff1e0d32)" style="fill: none; stroke: #33a02c; stroke-width: 1.5"/>
    <path d="M 350.071938 214.330719 
L 350.071938 174.045721 
" clip-path="url(#p6cff1e0d32)" style="fill: none; stroke: #33a02c; stroke-width: 1.5"/>
    <path d="M 373.14323 211.690528 
L 373.14323 172.227481 
" clip-path="url(#p6cff1e0d32)" style="fill: none; stroke: #33a02c; stroke-width: 1.5"/>
    <path d="M 396.214522 209.677384 
L 396.214522 169.425518 
" clip-path="url(#p6cff1e0d32)" style="fill: none; stroke: #33a02c; stroke-width: 1.5"/>
    <path d="M 419.285813 208.126273 
L 419.285813 168.836582 
" clip-path="url(#p6cff1e0d32)" style="fill: none; stroke: #33a02c; stroke-width: 1.5"/>
    <path d="M 442.357105 201.43843 
L 442.357105 165.894212 
" clip-path="url(#p6cff1e0d32)" style="fill: none; stroke: #33a02c; stroke-width: 1.5"/>
    <path d="M 465.428397 199.742813 
L 465.428397 164.914769 
" clip-path="url(#p6cff1e0d32)" style="fill: none; stroke: #33a02c; stroke-width: 1.5"/>
    <path d="M 488.499689 194.212855 
L 488.499689 159.744491 
" clip-path="url(#p6cff1e0d32)" style="fill: none; stroke: #33a02c; stroke-width: 1.5"/>
    <path d="M 511.570981 191.555422 
L 511.570981 156.516794 
" clip-path="url(#p6cff1e0d32)" style="fill: none; stroke: #33a02c; stroke-width: 1.5"/>
    <path d="M 534.642273 180.695503 
L 534.642273 148.651299 
" clip-path="url(#p6cff1e0d32)" style="fill: none; stroke: #33a02c; stroke-width: 1.5"/>
   </g>
   <g id="LineCollection_5">
    <path d="M 96.287727 434.116329 
L 96.287727 377.632807 
" clip-path="url(#p6cff1e0d32)" style="fill: none; stroke: #cab2d6; stroke-width: 1.5"/>
    <path d="M 119.359019 391.806582 
L 119.359019 327.563844 
" clip-path="url(#p6cff1e0d32)" style="fill: none; stroke: #cab2d6; stroke-width: 1.5"/>
    <path d="M 142.430311 360.585891 
L 142.430311 295.118128 
" clip-path="url(#p6cff1e0d32)" style="fill: none; stroke: #cab2d6; stroke-width: 1.5"/>
    <path d="M 165.501603 330.810137 
L 165.501603 268.00429 
" clip-path="url(#p6cff1e0d32)" style="fill: none; stroke: #cab2d6; stroke-width: 1.5"/>
    <path d="M 188.572895 290.051296 
L 188.572895 232.434777 
" clip-path="url(#p6cff1e0d32)" style="fill: none; stroke: #cab2d6; stroke-width: 1.5"/>
    <path d="M 211.644187 279.008417 
L 211.644187 222.25552 
" clip-path="url(#p6cff1e0d32)" style="fill: none; stroke: #cab2d6; stroke-width: 1.5"/>
    <path d="M 234.715478 265.855063 
L 234.715478 212.76004 
" clip-path="url(#p6cff1e0d32)" style="fill: none; stroke: #cab2d6; stroke-width: 1.5"/>
    <path d="M 257.78677 250.039499 
L 257.78677 202.003349 
" clip-path="url(#p6cff1e0d32)" style="fill: none; stroke: #cab2d6; stroke-width: 1.5"/>
    <path d="M 280.858062 238.905128 
L 280.858062 190.132212 
" clip-path="url(#p6cff1e0d32)" style="fill: none; stroke: #cab2d6; stroke-width: 1.5"/>
    <path d="M 303.929354 233.821162 
L 303.929354 187.726012 
" clip-path="url(#p6cff1e0d32)" style="fill: none; stroke: #cab2d6; stroke-width: 1.5"/>
    <path d="M 327.000646 226.202594 
L 327.000646 182.325959 
" clip-path="url(#p6cff1e0d32)" style="fill: none; stroke: #cab2d6; stroke-width: 1.5"/>
    <path d="M 350.071938 226.202594 
L 350.071938 182.325959 
" clip-path="url(#p6cff1e0d32)" style="fill: none; stroke: #cab2d6; stroke-width: 1.5"/>
    <path d="M 373.14323 223.866412 
L 373.14323 179.49036 
" clip-path="url(#p6cff1e0d32)" style="fill: none; stroke: #cab2d6; stroke-width: 1.5"/>
    <path d="M 396.214522 217.908701 
L 396.214522 176.35287 
" clip-path="url(#p6cff1e0d32)" style="fill: none; stroke: #cab2d6; stroke-width: 1.5"/>
    <path d="M 419.285813 215.036002 
L 419.285813 174.588799 
" clip-path="url(#p6cff1e0d32)" style="fill: none; stroke: #cab2d6; stroke-width: 1.5"/>
    <path d="M 442.357105 212.955916 
L 442.357105 172.923803 
" clip-path="url(#p6cff1e0d32)" style="fill: none; stroke: #cab2d6; stroke-width: 1.5"/>
    <path d="M 465.428397 200.005956 
L 465.428397 164.473289 
" clip-path="url(#p6cff1e0d32)" style="fill: none; stroke: #cab2d6; stroke-width: 1.5"/>
    <path d="M 488.499689 196.864043 
L 488.499689 161.19506 
" clip-path="url(#p6cff1e0d32)" style="fill: none; stroke: #cab2d6; stroke-width: 1.5"/>
    <path d="M 511.570981 195.091195 
L 511.570981 158.331139 
" clip-path="url(#p6cff1e0d32)" style="fill: none; stroke: #cab2d6; stroke-width: 1.5"/>
    <path d="M 534.642273 195.091195 
L 534.642273 158.331139 
" clip-path="url(#p6cff1e0d32)" style="fill: none; stroke: #cab2d6; stroke-width: 1.5"/>
   </g>
   <g id="LineCollection_6">
    <path d="M 96.287727 458.993161 
L 96.287727 423.1992 
" clip-path="url(#p6cff1e0d32)" style="fill: none; stroke: #6a3d9a; stroke-width: 1.5"/>
    <path d="M 119.359019 430.237571 
L 119.359019 377.409808 
" clip-path="url(#p6cff1e0d32)" style="fill: none; stroke: #6a3d9a; stroke-width: 1.5"/>
    <path d="M 142.430311 412.183976 
L 142.430311 358.190912 
" clip-path="url(#p6cff1e0d32)" style="fill: none; stroke: #6a3d9a; stroke-width: 1.5"/>
    <path d="M 165.501603 378.727329 
L 165.501603 320.312648 
" clip-path="url(#p6cff1e0d32)" style="fill: none; stroke: #6a3d9a; stroke-width: 1.5"/>
    <path d="M 188.572895 349.569663 
L 188.572895 289.013977 
" clip-path="url(#p6cff1e0d32)" style="fill: none; stroke: #6a3d9a; stroke-width: 1.5"/>
    <path d="M 211.644187 326.407531 
L 211.644187 264.916731 
" clip-path="url(#p6cff1e0d32)" style="fill: none; stroke: #6a3d9a; stroke-width: 1.5"/>
    <path d="M 234.715478 319.49556 
L 234.715478 257.383382 
" clip-path="url(#p6cff1e0d32)" style="fill: none; stroke: #6a3d9a; stroke-width: 1.5"/>
    <path d="M 257.78677 306.374786 
L 257.78677 248.747008 
" clip-path="url(#p6cff1e0d32)" style="fill: none; stroke: #6a3d9a; stroke-width: 1.5"/>
    <path d="M 280.858062 287.88653 
L 280.858062 232.102821 
" clip-path="url(#p6cff1e0d32)" style="fill: none; stroke: #6a3d9a; stroke-width: 1.5"/>
    <path d="M 303.929354 260.636689 
L 303.929354 212.628296 
" clip-path="url(#p6cff1e0d32)" style="fill: none; stroke: #6a3d9a; stroke-width: 1.5"/>
    <path d="M 327.000646 250.75641 
L 327.000646 204.318172 
" clip-path="url(#p6cff1e0d32)" style="fill: none; stroke: #6a3d9a; stroke-width: 1.5"/>
    <path d="M 350.071938 247.700915 
L 350.071938 201.666874 
" clip-path="url(#p6cff1e0d32)" style="fill: none; stroke: #6a3d9a; stroke-width: 1.5"/>
    <path d="M 373.14323 242.162942 
L 373.14323 195.25625 
" clip-path="url(#p6cff1e0d32)" style="fill: none; stroke: #6a3d9a; stroke-width: 1.5"/>
    <path d="M 396.214522 234.630216 
L 396.214522 189.057005 
" clip-path="url(#p6cff1e0d32)" style="fill: none; stroke: #6a3d9a; stroke-width: 1.5"/>
    <path d="M 419.285813 224.54621 
L 419.285813 178.988899 
" clip-path="url(#p6cff1e0d32)" style="fill: none; stroke: #6a3d9a; stroke-width: 1.5"/>
    <path d="M 442.357105 211.739336 
L 442.357105 174.140382 
" clip-path="url(#p6cff1e0d32)" style="fill: none; stroke: #6a3d9a; stroke-width: 1.5"/>
    <path d="M 465.428397 205.023179 
L 465.428397 172.118013 
" clip-path="url(#p6cff1e0d32)" style="fill: none; stroke: #6a3d9a; stroke-width: 1.5"/>
    <path d="M 488.499689 203.419861 
L 488.499689 170.332923 
" clip-path="url(#p6cff1e0d32)" style="fill: none; stroke: #6a3d9a; stroke-width: 1.5"/>
    <path d="M 511.570981 200.32997 
L 511.570981 169.142719 
" clip-path="url(#p6cff1e0d32)" style="fill: none; stroke: #6a3d9a; stroke-width: 1.5"/>
    <path d="M 534.642273 197.372962 
L 534.642273 166.214597 
" clip-path="url(#p6cff1e0d32)" style="fill: none; stroke: #6a3d9a; stroke-width: 1.5"/>
   </g>
   <g id="LineCollection_7">
    <path d="M 96.287727 453.808433 
L 96.287727 424.995519 
" clip-path="url(#p6cff1e0d32)" style="fill: none; stroke: #fb9a99; stroke-width: 1.5"/>
    <path d="M 119.359019 438.472969 
L 119.359019 402.166806 
" clip-path="url(#p6cff1e0d32)" style="fill: none; stroke: #fb9a99; stroke-width: 1.5"/>
    <path d="M 142.430311 424.871765 
L 142.430311 381.883927 
" clip-path="url(#p6cff1e0d32)" style="fill: none; stroke: #fb9a99; stroke-width: 1.5"/>
    <path d="M 165.501603 418.77054 
L 165.501603 376.928241 
" clip-path="url(#p6cff1e0d32)" style="fill: none; stroke: #fb9a99; stroke-width: 1.5"/>
    <path d="M 188.572895 395.145009 
L 188.572895 344.912541 
" clip-path="url(#p6cff1e0d32)" style="fill: none; stroke: #fb9a99; stroke-width: 1.5"/>
    <path d="M 211.644187 384.138274 
L 211.644187 329.703697 
" clip-path="url(#p6cff1e0d32)" style="fill: none; stroke: #fb9a99; stroke-width: 1.5"/>
    <path d="M 234.715478 361.212569 
L 234.715478 304.656674 
" clip-path="url(#p6cff1e0d32)" style="fill: none; stroke: #fb9a99; stroke-width: 1.5"/>
    <path d="M 257.78677 352.406242 
L 257.78677 296.342623 
" clip-path="url(#p6cff1e0d32)" style="fill: none; stroke: #fb9a99; stroke-width: 1.5"/>
    <path d="M 280.858062 344.201397 
L 280.858062 285.822054 
" clip-path="url(#p6cff1e0d32)" style="fill: none; stroke: #fb9a99; stroke-width: 1.5"/>
    <path d="M 303.929354 325.836504 
L 303.929354 266.557781 
" clip-path="url(#p6cff1e0d32)" style="fill: none; stroke: #fb9a99; stroke-width: 1.5"/>
    <path d="M 327.000646 323.726503 
L 327.000646 265.101037 
" clip-path="url(#p6cff1e0d32)" style="fill: none; stroke: #fb9a99; stroke-width: 1.5"/>
    <path d="M 350.071938 319.948009 
L 350.071938 260.854353 
" clip-path="url(#p6cff1e0d32)" style="fill: none; stroke: #fb9a99; stroke-width: 1.5"/>
    <path d="M 373.14323 309.091457 
L 373.14323 248.348722 
" clip-path="url(#p6cff1e0d32)" style="fill: none; stroke: #fb9a99; stroke-width: 1.5"/>
    <path d="M 396.214522 302.783174 
L 396.214522 243.421756 
" clip-path="url(#p6cff1e0d32)" style="fill: none; stroke: #fb9a99; stroke-width: 1.5"/>
    <path d="M 419.285813 300.117402 
L 419.285813 241.985771 
" clip-path="url(#p6cff1e0d32)" style="fill: none; stroke: #fb9a99; stroke-width: 1.5"/>
    <path d="M 442.357105 282.308462 
L 442.357105 227.15899 
" clip-path="url(#p6cff1e0d32)" style="fill: none; stroke: #fb9a99; stroke-width: 1.5"/>
    <path d="M 465.428397 275.016899 
L 465.428397 222.14528 
" clip-path="url(#p6cff1e0d32)" style="fill: none; stroke: #fb9a99; stroke-width: 1.5"/>
    <path d="M 488.499689 265.309512 
L 488.499689 211.522218 
" clip-path="url(#p6cff1e0d32)" style="fill: none; stroke: #fb9a99; stroke-width: 1.5"/>
    <path d="M 511.570981 265.223149 
L 511.570981 211.430244 
" clip-path="url(#p6cff1e0d32)" style="fill: none; stroke: #fb9a99; stroke-width: 1.5"/>
    <path d="M 534.642273 255.112861 
L 534.642273 203.885141 
" clip-path="url(#p6cff1e0d32)" style="fill: none; stroke: #fb9a99; stroke-width: 1.5"/>
   </g>
   <g id="LineCollection_8">
    <path d="M 96.287727 461.631693 
L 96.287727 436.07601 
" clip-path="url(#p6cff1e0d32)" style="fill: none; stroke: #e31a1c; stroke-width: 1.5"/>
    <path d="M 119.359019 446.034022 
L 119.359019 408.694397 
" clip-path="url(#p6cff1e0d32)" style="fill: none; stroke: #e31a1c; stroke-width: 1.5"/>
    <path d="M 142.430311 428.894387 
L 142.430311 378.752992 
" clip-path="url(#p6cff1e0d32)" style="fill: none; stroke: #e31a1c; stroke-width: 1.5"/>
    <path d="M 165.501603 399.327852 
L 165.501603 339.124663 
" clip-path="url(#p6cff1e0d32)" style="fill: none; stroke: #e31a1c; stroke-width: 1.5"/>
    <path d="M 188.572895 378.131869 
L 188.572895 317.341362 
" clip-path="url(#p6cff1e0d32)" style="fill: none; stroke: #e31a1c; stroke-width: 1.5"/>
    <path d="M 211.644187 370.224248 
L 211.644187 310.268652 
" clip-path="url(#p6cff1e0d32)" style="fill: none; stroke: #e31a1c; stroke-width: 1.5"/>
    <path d="M 234.715478 360.534798 
L 234.715478 300.697676 
" clip-path="url(#p6cff1e0d32)" style="fill: none; stroke: #e31a1c; stroke-width: 1.5"/>
    <path d="M 257.78677 344.977999 
L 257.78677 283.083742 
" clip-path="url(#p6cff1e0d32)" style="fill: none; stroke: #e31a1c; stroke-width: 1.5"/>
    <path d="M 280.858062 332.497557 
L 280.858062 273.628698 
" clip-path="url(#p6cff1e0d32)" style="fill: none; stroke: #e31a1c; stroke-width: 1.5"/>
    <path d="M 303.929354 313.134094 
L 303.929354 255.898008 
" clip-path="url(#p6cff1e0d32)" style="fill: none; stroke: #e31a1c; stroke-width: 1.5"/>
    <path d="M 327.000646 306.2432 
L 327.000646 249.413606 
" clip-path="url(#p6cff1e0d32)" style="fill: none; stroke: #e31a1c; stroke-width: 1.5"/>
    <path d="M 350.071938 292.655515 
L 350.071938 238.21241 
" clip-path="url(#p6cff1e0d32)" style="fill: none; stroke: #e31a1c; stroke-width: 1.5"/>
    <path d="M 373.14323 285.15752 
L 373.14323 231.978434 
" clip-path="url(#p6cff1e0d32)" style="fill: none; stroke: #e31a1c; stroke-width: 1.5"/>
    <path d="M 396.214522 284.058948 
L 396.214522 230.045273 
" clip-path="url(#p6cff1e0d32)" style="fill: none; stroke: #e31a1c; stroke-width: 1.5"/>
    <path d="M 419.285813 274.912783 
L 419.285813 222.784408 
" clip-path="url(#p6cff1e0d32)" style="fill: none; stroke: #e31a1c; stroke-width: 1.5"/>
    <path d="M 442.357105 272.243858 
L 442.357105 219.033191 
" clip-path="url(#p6cff1e0d32)" style="fill: none; stroke: #e31a1c; stroke-width: 1.5"/>
    <path d="M 465.428397 268.715407 
L 465.428397 215.249814 
" clip-path="url(#p6cff1e0d32)" style="fill: none; stroke: #e31a1c; stroke-width: 1.5"/>
    <path d="M 488.499689 264.830319 
L 488.499689 211.466399 
" clip-path="url(#p6cff1e0d32)" style="fill: none; stroke: #e31a1c; stroke-width: 1.5"/>
    <path d="M 511.570981 258.343181 
L 511.570981 206.896626 
" clip-path="url(#p6cff1e0d32)" style="fill: none; stroke: #e31a1c; stroke-width: 1.5"/>
    <path d="M 534.642273 255.478253 
L 534.642273 205.303122 
" clip-path="url(#p6cff1e0d32)" style="fill: none; stroke: #e31a1c; stroke-width: 1.5"/>
   </g>
   <g id="LineCollection_9">
    <path d="M 96.287727 461.418915 
L 96.287727 428.798623 
" clip-path="url(#p6cff1e0d32)" style="fill: none; stroke: #fdbf6f; stroke-width: 1.5"/>
    <path d="M 119.359019 447.197485 
L 119.359019 397.544048 
" clip-path="url(#p6cff1e0d32)" style="fill: none; stroke: #fdbf6f; stroke-width: 1.5"/>
    <path d="M 142.430311 421.635586 
L 142.430311 360.331225 
" clip-path="url(#p6cff1e0d32)" style="fill: none; stroke: #fdbf6f; stroke-width: 1.5"/>
    <path d="M 165.501603 406.227997 
L 165.501603 344.529791 
" clip-path="url(#p6cff1e0d32)" style="fill: none; stroke: #fdbf6f; stroke-width: 1.5"/>
    <path d="M 188.572895 394.9474 
L 188.572895 330.664831 
" clip-path="url(#p6cff1e0d32)" style="fill: none; stroke: #fdbf6f; stroke-width: 1.5"/>
    <path d="M 211.644187 379.955865 
L 211.644187 314.804017 
" clip-path="url(#p6cff1e0d32)" style="fill: none; stroke: #fdbf6f; stroke-width: 1.5"/>
    <path d="M 234.715478 371.53057 
L 234.715478 305.03891 
" clip-path="url(#p6cff1e0d32)" style="fill: none; stroke: #fdbf6f; stroke-width: 1.5"/>
    <path d="M 257.78677 352.981398 
L 257.78677 282.392171 
" clip-path="url(#p6cff1e0d32)" style="fill: none; stroke: #fdbf6f; stroke-width: 1.5"/>
    <path d="M 280.858062 349.079824 
L 280.858062 280.230278 
" clip-path="url(#p6cff1e0d32)" style="fill: none; stroke: #fdbf6f; stroke-width: 1.5"/>
    <path d="M 303.929354 337.735241 
L 303.929354 270.174388 
" clip-path="url(#p6cff1e0d32)" style="fill: none; stroke: #fdbf6f; stroke-width: 1.5"/>
    <path d="M 327.000646 329.949945 
L 327.000646 264.049375 
" clip-path="url(#p6cff1e0d32)" style="fill: none; stroke: #fdbf6f; stroke-width: 1.5"/>
    <path d="M 350.071938 312.967593 
L 350.071938 251.071065 
" clip-path="url(#p6cff1e0d32)" style="fill: none; stroke: #fdbf6f; stroke-width: 1.5"/>
    <path d="M 373.14323 307.194701 
L 373.14323 246.857069 
" clip-path="url(#p6cff1e0d32)" style="fill: none; stroke: #fdbf6f; stroke-width: 1.5"/>
    <path d="M 396.214522 288.010623 
L 396.214522 228.946995 
" clip-path="url(#p6cff1e0d32)" style="fill: none; stroke: #fdbf6f; stroke-width: 1.5"/>
    <path d="M 419.285813 273.728637 
L 419.285813 218.618436 
" clip-path="url(#p6cff1e0d32)" style="fill: none; stroke: #fdbf6f; stroke-width: 1.5"/>
    <path d="M 442.357105 263.173839 
L 442.357105 211.517843 
" clip-path="url(#p6cff1e0d32)" style="fill: none; stroke: #fdbf6f; stroke-width: 1.5"/>
    <path d="M 465.428397 252.854037 
L 465.428397 204.182255 
" clip-path="url(#p6cff1e0d32)" style="fill: none; stroke: #fdbf6f; stroke-width: 1.5"/>
    <path d="M 488.499689 245.983951 
L 488.499689 198.03372 
" clip-path="url(#p6cff1e0d32)" style="fill: none; stroke: #fdbf6f; stroke-width: 1.5"/>
    <path d="M 511.570981 242.584023 
L 511.570981 194.656832 
" clip-path="url(#p6cff1e0d32)" style="fill: none; stroke: #fdbf6f; stroke-width: 1.5"/>
    <path d="M 534.642273 240.279237 
L 534.642273 192.681523 
" clip-path="url(#p6cff1e0d32)" style="fill: none; stroke: #fdbf6f; stroke-width: 1.5"/>
   </g>
   <g id="LineCollection_10">
    <path d="M 96.287727 452.026801 
L 96.287727 411.08347 
" clip-path="url(#p6cff1e0d32)" style="fill: none; stroke: #ff7f00; stroke-width: 1.5"/>
    <path d="M 119.359019 438.682281 
L 119.359019 384.480441 
" clip-path="url(#p6cff1e0d32)" style="fill: none; stroke: #ff7f00; stroke-width: 1.5"/>
    <path d="M 142.430311 432.939028 
L 142.430311 375.600037 
" clip-path="url(#p6cff1e0d32)" style="fill: none; stroke: #ff7f00; stroke-width: 1.5"/>
    <path d="M 165.501603 421.967106 
L 165.501603 361.783077 
" clip-path="url(#p6cff1e0d32)" style="fill: none; stroke: #ff7f00; stroke-width: 1.5"/>
    <path d="M 188.572895 415.379211 
L 188.572895 355.887363 
" clip-path="url(#p6cff1e0d32)" style="fill: none; stroke: #ff7f00; stroke-width: 1.5"/>
    <path d="M 211.644187 389.388476 
L 211.644187 326.593543 
" clip-path="url(#p6cff1e0d32)" style="fill: none; stroke: #ff7f00; stroke-width: 1.5"/>
    <path d="M 234.715478 377.994725 
L 234.715478 315.338459 
" clip-path="url(#p6cff1e0d32)" style="fill: none; stroke: #ff7f00; stroke-width: 1.5"/>
    <path d="M 257.78677 370.742935 
L 257.78677 306.718232 
" clip-path="url(#p6cff1e0d32)" style="fill: none; stroke: #ff7f00; stroke-width: 1.5"/>
    <path d="M 280.858062 347.404151 
L 280.858062 280.300915 
" clip-path="url(#p6cff1e0d32)" style="fill: none; stroke: #ff7f00; stroke-width: 1.5"/>
    <path d="M 303.929354 338.52345 
L 303.929354 271.704563 
" clip-path="url(#p6cff1e0d32)" style="fill: none; stroke: #ff7f00; stroke-width: 1.5"/>
    <path d="M 327.000646 338.038225 
L 327.000646 271.298102 
" clip-path="url(#p6cff1e0d32)" style="fill: none; stroke: #ff7f00; stroke-width: 1.5"/>
    <path d="M 350.071938 320.074967 
L 350.071938 252.52388 
" clip-path="url(#p6cff1e0d32)" style="fill: none; stroke: #ff7f00; stroke-width: 1.5"/>
    <path d="M 373.14323 314.359542 
L 373.14323 248.609093 
" clip-path="url(#p6cff1e0d32)" style="fill: none; stroke: #ff7f00; stroke-width: 1.5"/>
    <path d="M 396.214522 307.490929 
L 396.214522 242.994096 
" clip-path="url(#p6cff1e0d32)" style="fill: none; stroke: #ff7f00; stroke-width: 1.5"/>
    <path d="M 419.285813 299.401079 
L 419.285813 236.995301 
" clip-path="url(#p6cff1e0d32)" style="fill: none; stroke: #ff7f00; stroke-width: 1.5"/>
    <path d="M 442.357105 287.617832 
L 442.357105 226.486388 
" clip-path="url(#p6cff1e0d32)" style="fill: none; stroke: #ff7f00; stroke-width: 1.5"/>
    <path d="M 465.428397 284.031995 
L 465.428397 222.225386 
" clip-path="url(#p6cff1e0d32)" style="fill: none; stroke: #ff7f00; stroke-width: 1.5"/>
    <path d="M 488.499689 283.211194 
L 488.499689 221.262814 
" clip-path="url(#p6cff1e0d32)" style="fill: none; stroke: #ff7f00; stroke-width: 1.5"/>
    <path d="M 511.570981 283.211194 
L 511.570981 221.262814 
" clip-path="url(#p6cff1e0d32)" style="fill: none; stroke: #ff7f00; stroke-width: 1.5"/>
    <path d="M 534.642273 280.409443 
L 534.642273 219.78447 
" clip-path="url(#p6cff1e0d32)" style="fill: none; stroke: #ff7f00; stroke-width: 1.5"/>
   </g>
   <g id="line2d_10">
    <path d="M 96.287727 363.341127 
L 119.359019 311.177474 
L 142.430311 268.644033 
L 165.501603 250.5428 
L 188.572895 211.21943 
L 211.644187 198.646652 
L 234.715478 187.054729 
L 257.78677 179.742901 
L 280.858062 164.316726 
L 303.929354 164.138389 
L 327.000646 155.5782 
L 350.071938 147.107179 
L 373.14323 145.323806 
L 396.214522 140.597868 
L 419.285813 132.572691 
L 442.357105 130.165138 
L 465.428397 124.904188 
L 488.499689 115.987324 
L 511.570981 113.579771 
L 534.642273 109.388845 
" clip-path="url(#p6cff1e0d32)" style="fill: none; stroke: #a6cee3; stroke-width: 1.5; stroke-linecap: square"/>
   </g>
   <g id="line2d_11">
    <path d="M 96.287727 385.098275 
L 119.359019 316.884267 
L 142.430311 293.700421 
L 165.501603 259.994675 
L 188.572895 227.893966 
L 211.644187 218.620427 
L 234.715478 182.239623 
L 257.78677 167.883472 
L 280.858062 159.144945 
L 303.929354 152.635635 
L 327.000646 141.757061 
L 350.071938 135.158581 
L 373.14323 131.235161 
L 396.214522 129.897632 
L 419.285813 129.719295 
L 442.357105 127.40091 
L 465.428397 122.407466 
L 488.499689 120.089082 
L 511.570981 114.471457 
L 534.642273 108.318821 
" clip-path="url(#p6cff1e0d32)" style="fill: none; stroke: #1f78b4; stroke-width: 1.5; stroke-linecap: square"/>
   </g>
   <g id="line2d_12">
    <path d="M 96.287727 385.009107 
L 119.359019 327.584503 
L 142.430311 302.884791 
L 165.501603 276.401705 
L 188.572895 264.809782 
L 211.644187 255.268738 
L 234.715478 242.250116 
L 257.78677 224.416389 
L 280.858062 212.289454 
L 303.929354 202.03506 
L 327.000646 192.939859 
L 350.071938 187.233066 
L 373.14323 180.099575 
L 396.214522 170.558531 
L 419.285813 165.38675 
L 442.357105 162.890028 
L 465.428397 162.176679 
L 488.499689 159.50162 
L 511.570981 153.61649 
L 534.642273 150.31725 
" clip-path="url(#p6cff1e0d32)" style="fill: none; stroke: #b2df8a; stroke-width: 1.5; stroke-linecap: square"/>
   </g>
   <g id="line2d_13">
    <path d="M 96.287727 395.2635 
L 119.359019 338.106403 
L 142.430311 299.318045 
L 165.501603 280.592631 
L 188.572895 265.701468 
L 211.644187 255.357906 
L 234.715478 245.906031 
L 257.78677 237.702516 
L 280.858062 222.36551 
L 303.929354 215.321188 
L 327.000646 207.563516 
L 350.071938 194.18822 
L 373.14323 191.959004 
L 396.214522 189.551451 
L 419.285813 188.481427 
L 442.357105 183.666321 
L 465.428397 182.328791 
L 488.499689 176.978673 
L 511.570981 174.036108 
L 534.642273 164.673401 
" clip-path="url(#p6cff1e0d32)" style="fill: none; stroke: #33a02c; stroke-width: 1.5; stroke-linecap: square"/>
   </g>
   <g id="line2d_14">
    <path d="M 96.287727 405.874568 
L 119.359019 359.685213 
L 142.430311 327.852009 
L 165.501603 299.407214 
L 188.572895 261.243036 
L 211.644187 250.631968 
L 234.715478 239.307551 
L 257.78677 226.021424 
L 280.858062 214.51867 
L 303.929354 210.773587 
L 327.000646 204.264276 
L 350.071938 204.264276 
L 373.14323 201.678386 
L 396.214522 197.130785 
L 419.285813 194.812401 
L 442.357105 192.939859 
L 465.428397 182.239623 
L 488.499689 179.029552 
L 511.570981 176.711167 
L 534.642273 176.711167 
" clip-path="url(#p6cff1e0d32)" style="fill: none; stroke: #cab2d6; stroke-width: 1.5; stroke-linecap: square"/>
   </g>
   <g id="line2d_15">
    <path d="M 96.287727 441.09618 
L 119.359019 403.823689 
L 142.430311 385.187444 
L 165.501603 349.519988 
L 188.572895 319.29182 
L 211.644187 295.662131 
L 234.715478 288.439471 
L 257.78677 277.560897 
L 280.858062 259.994675 
L 303.929354 236.632492 
L 327.000646 227.537291 
L 350.071938 224.683895 
L 373.14323 218.709596 
L 396.214522 211.843611 
L 419.285813 201.767554 
L 442.357105 192.939859 
L 465.428397 188.570596 
L 488.499689 186.876392 
L 511.570981 184.736345 
L 534.642273 181.793779 
" clip-path="url(#p6cff1e0d32)" style="fill: none; stroke: #6a3d9a; stroke-width: 1.5; stroke-linecap: square"/>
   </g>
   <g id="line2d_16">
    <path d="M 96.287727 439.401976 
L 119.359019 420.319887 
L 142.430311 403.377846 
L 165.501603 397.849391 
L 188.572895 370.028775 
L 211.644187 356.920985 
L 234.715478 332.934622 
L 257.78677 324.374432 
L 280.858062 315.011725 
L 303.929354 296.197143 
L 327.000646 294.41377 
L 350.071938 290.401181 
L 373.14323 278.720089 
L 396.214522 273.102465 
L 419.285813 271.051587 
L 442.357105 254.733726 
L 465.428397 248.58109 
L 488.499689 238.415865 
L 511.570981 238.326696 
L 534.642273 229.499001 
" clip-path="url(#p6cff1e0d32)" style="fill: none; stroke: #fb9a99; stroke-width: 1.5; stroke-linecap: square"/>
   </g>
   <g id="line2d_17">
    <path d="M 96.287727 448.853852 
L 119.359019 427.36421 
L 142.430311 403.823689 
L 165.501603 369.226258 
L 188.572895 347.736616 
L 211.644187 340.24645 
L 234.715478 330.616237 
L 257.78677 314.03087 
L 280.858062 303.063128 
L 303.929354 284.516051 
L 327.000646 277.828403 
L 350.071938 265.433962 
L 373.14323 258.567977 
L 396.214522 257.05211 
L 419.285813 248.848596 
L 442.357105 245.638525 
L 465.428397 241.98261 
L 488.499689 238.148359 
L 511.570981 232.619903 
L 534.642273 230.390687 
" clip-path="url(#p6cff1e0d32)" style="fill: none; stroke: #e31a1c; stroke-width: 1.5; stroke-linecap: square"/>
   </g>
   <g id="line2d_18">
    <path d="M 96.287727 445.108769 
L 119.359019 422.370766 
L 142.430311 390.983405 
L 165.501603 375.378894 
L 188.572895 362.806116 
L 211.644187 347.379941 
L 234.715478 338.28474 
L 257.78677 317.686785 
L 280.858062 314.655051 
L 303.929354 303.954814 
L 327.000646 296.99966 
L 350.071938 282.019329 
L 373.14323 277.025885 
L 396.214522 258.478809 
L 419.285813 246.173536 
L 442.357105 237.345841 
L 465.428397 228.518146 
L 488.499689 222.008835 
L 511.570981 218.620427 
L 534.642273 216.48038 
" clip-path="url(#p6cff1e0d32)" style="fill: none; stroke: #fdbf6f; stroke-width: 1.5; stroke-linecap: square"/>
   </g>
   <g id="line2d_19">
    <path d="M 96.287727 431.555136 
L 119.359019 411.581361 
L 142.430311 404.269533 
L 165.501603 391.875092 
L 188.572895 385.633287 
L 211.644187 357.991009 
L 234.715478 346.666592 
L 257.78677 338.730583 
L 280.858062 313.852533 
L 303.929354 305.114006 
L 327.000646 304.668163 
L 350.071938 286.299424 
L 373.14323 281.484317 
L 396.214522 275.242513 
L 419.285813 268.19819 
L 442.357105 257.05211 
L 465.428397 253.12869 
L 488.499689 252.237004 
L 511.570981 252.237004 
L 534.642273 250.096957 
" clip-path="url(#p6cff1e0d32)" style="fill: none; stroke: #ff7f00; stroke-width: 1.5; stroke-linecap: square"/>
   </g>
   <g id="patch_3">
    <path d="M 74.37 512.7 
L 74.37 75.84 
" style="fill: none; stroke: #000000; stroke-width: 1.875; stroke-linejoin: miter; stroke-linecap: square"/>
   </g>
   <g id="patch_4">
    <path d="M 556.56 512.7 
L 556.56 75.84 
" style="fill: none; stroke: #000000; stroke-width: 1.875; stroke-linejoin: miter; stroke-linecap: square"/>
   </g>
   <g id="patch_5">
    <path d="M 74.37 512.7 
L 556.56 512.7 
" style="fill: none; stroke: #000000; stroke-width: 1.875; stroke-linejoin: miter; stroke-linecap: square"/>
   </g>
   <g id="patch_6">
    <path d="M 74.37 75.84 
L 556.56 75.84 
" style="fill: none; stroke: #000000; stroke-width: 1.875; stroke-linejoin: miter; stroke-linecap: square"/>
   </g>
   <g id="text_12">
    <!-- Gaussian Process Surrogate -->
    <g transform="translate(204.512813 69.84) scale(0.14 -0.14)">
     <defs>
      <path id="DejaVuSans-Bold-47" d="M 4781 347 
Q 4331 128 3847 18 
Q 3363 -91 2847 -91 
Q 1681 -91 1000 561 
Q 319 1213 319 2328 
Q 319 3456 1012 4103 
Q 1706 4750 2913 4750 
Q 3378 4750 3804 4662 
Q 4231 4575 4609 4403 
L 4609 3438 
Q 4219 3659 3833 3768 
Q 3447 3878 3059 3878 
Q 2341 3878 1952 3476 
Q 1563 3075 1563 2328 
Q 1563 1588 1938 1184 
Q 2313 781 3003 781 
Q 3191 781 3352 804 
Q 3513 828 3641 878 
L 3641 1784 
L 2906 1784 
L 2906 2591 
L 4781 2591 
L 4781 347 
z
" transform="scale(0.015625)"/>
      <path id="DejaVuSans-Bold-50" d="M 588 4666 
L 2584 4666 
Q 3475 4666 3951 4270 
Q 4428 3875 4428 3144 
Q 4428 2409 3951 2014 
Q 3475 1619 2584 1619 
L 1791 1619 
L 1791 0 
L 588 0 
L 588 4666 
z
M 1791 3794 
L 1791 2491 
L 2456 2491 
Q 2806 2491 2997 2661 
Q 3188 2831 3188 3144 
Q 3188 3456 2997 3625 
Q 2806 3794 2456 3794 
L 1791 3794 
z
" transform="scale(0.015625)"/>
      <path id="DejaVuSans-Bold-63" d="M 3366 3391 
L 3366 2478 
Q 3138 2634 2908 2709 
Q 2678 2784 2431 2784 
Q 1963 2784 1702 2511 
Q 1441 2238 1441 1747 
Q 1441 1256 1702 982 
Q 1963 709 2431 709 
Q 2694 709 2930 787 
Q 3166 866 3366 1019 
L 3366 103 
Q 3103 6 2833 -42 
Q 2563 -91 2291 -91 
Q 1344 -91 809 395 
Q 275 881 275 1747 
Q 275 2613 809 3098 
Q 1344 3584 2291 3584 
Q 2566 3584 2833 3536 
Q 3100 3488 3366 3391 
z
" transform="scale(0.015625)"/>
      <path id="DejaVuSans-Bold-53" d="M 3834 4519 
L 3834 3531 
Q 3450 3703 3084 3790 
Q 2719 3878 2394 3878 
Q 1963 3878 1756 3759 
Q 1550 3641 1550 3391 
Q 1550 3203 1689 3098 
Q 1828 2994 2194 2919 
L 2706 2816 
Q 3484 2659 3812 2340 
Q 4141 2022 4141 1434 
Q 4141 663 3683 286 
Q 3225 -91 2284 -91 
Q 1841 -91 1394 -6 
Q 947 78 500 244 
L 500 1259 
Q 947 1022 1364 901 
Q 1781 781 2169 781 
Q 2563 781 2772 912 
Q 2981 1044 2981 1288 
Q 2981 1506 2839 1625 
Q 2697 1744 2272 1838 
L 1806 1941 
Q 1106 2091 782 2419 
Q 459 2747 459 3303 
Q 459 4000 909 4375 
Q 1359 4750 2203 4750 
Q 2588 4750 2994 4692 
Q 3400 4634 3834 4519 
z
" transform="scale(0.015625)"/>
      <path id="DejaVuSans-Bold-67" d="M 2919 594 
Q 2688 288 2409 144 
Q 2131 0 1766 0 
Q 1125 0 706 504 
Q 288 1009 288 1791 
Q 288 2575 706 3076 
Q 1125 3578 1766 3578 
Q 2131 3578 2409 3434 
Q 2688 3291 2919 2981 
L 2919 3500 
L 4044 3500 
L 4044 353 
Q 4044 -491 3511 -936 
Q 2978 -1381 1966 -1381 
Q 1638 -1381 1331 -1331 
Q 1025 -1281 716 -1178 
L 716 -306 
Q 1009 -475 1290 -558 
Q 1572 -641 1856 -641 
Q 2406 -641 2662 -400 
Q 2919 -159 2919 353 
L 2919 594 
z
M 2181 2772 
Q 1834 2772 1640 2515 
Q 1447 2259 1447 1791 
Q 1447 1309 1634 1061 
Q 1822 813 2181 813 
Q 2531 813 2725 1069 
Q 2919 1325 2919 1791 
Q 2919 2259 2725 2515 
Q 2531 2772 2181 2772 
z
" transform="scale(0.015625)"/>
     </defs>
     <use xlink:href="#DejaVuSans-Bold-47"/>
     <use xlink:href="#DejaVuSans-Bold-61" x="82.080078"/>
     <use xlink:href="#DejaVuSans-Bold-75" x="149.560547"/>
     <use xlink:href="#DejaVuSans-Bold-73" x="220.751953"/>
     <use xlink:href="#DejaVuSans-Bold-73" x="280.273438"/>
     <use xlink:href="#DejaVuSans-Bold-69" x="339.794922"/>
     <use xlink:href="#DejaVuSans-Bold-61" x="374.072266"/>
     <use xlink:href="#DejaVuSans-Bold-6e" x="441.552734"/>
     <use xlink:href="#DejaVuSans-Bold-20" x="512.744141"/>
     <use xlink:href="#DejaVuSans-Bold-50" x="547.558594"/>
     <use xlink:href="#DejaVuSans-Bold-72" x="620.849609"/>
     <use xlink:href="#DejaVuSans-Bold-6f" x="670.166016"/>
     <use xlink:href="#DejaVuSans-Bold-63" x="738.867188"/>
     <use xlink:href="#DejaVuSans-Bold-65" x="798.144531"/>
     <use xlink:href="#DejaVuSans-Bold-73" x="865.966797"/>
     <use xlink:href="#DejaVuSans-Bold-73" x="925.488281"/>
     <use xlink:href="#DejaVuSans-Bold-20" x="985.009766"/>
     <use xlink:href="#DejaVuSans-Bold-53" x="1019.824219"/>
     <use xlink:href="#DejaVuSans-Bold-75" x="1091.845703"/>
     <use xlink:href="#DejaVuSans-Bold-72" x="1163.037109"/>
     <use xlink:href="#DejaVuSans-Bold-72" x="1212.353516"/>
     <use xlink:href="#DejaVuSans-Bold-6f" x="1261.669922"/>
     <use xlink:href="#DejaVuSans-Bold-67" x="1330.371094"/>
     <use xlink:href="#DejaVuSans-Bold-61" x="1401.953125"/>
     <use xlink:href="#DejaVuSans-Bold-74" x="1469.433594"/>
     <use xlink:href="#DejaVuSans-Bold-65" x="1517.236328"/>
    </g>
   </g>
   <g id="legend_1">
    <g id="patch_7">
     <path d="M 302.621875 505.7 
L 546.76 505.7 
Q 549.56 505.7 549.56 502.9 
L 549.56 294.9125 
Q 549.56 292.1125 546.76 292.1125 
L 302.621875 292.1125 
Q 299.821875 292.1125 299.821875 294.9125 
L 299.821875 502.9 
Q 299.821875 505.7 302.621875 505.7 
z
" style="fill: #ffffff; opacity: 0.8; stroke: #cccccc; stroke-width: 1.5; stroke-linejoin: miter"/>
    </g>
    <g id="LineCollection_11">
     <path d="M 319.421875 310.450313 
L 319.421875 296.450313 
" style="fill: none; stroke: #a6cee3; stroke-width: 1.5"/>
    </g>
    <g id="line2d_20">
     <path d="M 305.421875 303.450313 
L 333.421875 303.450313 
" style="fill: none; stroke: #a6cee3; stroke-width: 1.5; stroke-linecap: square"/>
    </g>
    <g id="line2d_21"/>
    <g id="text_13">
     <!-- rdkit_pca0.9 (AUC: 32.7) -->
     <g transform="translate(344.621875 308.350313) scale(0.14 -0.14)">
      <defs>
       <path id="DejaVuSans-72" d="M 2631 2963 
Q 2534 3019 2420 3045 
Q 2306 3072 2169 3072 
Q 1681 3072 1420 2755 
Q 1159 2438 1159 1844 
L 1159 0 
L 581 0 
L 581 3500 
L 1159 3500 
L 1159 2956 
Q 1341 3275 1631 3429 
Q 1922 3584 2338 3584 
Q 2397 3584 2469 3576 
Q 2541 3569 2628 3553 
L 2631 2963 
z
" transform="scale(0.015625)"/>
       <path id="DejaVuSans-64" d="M 2906 2969 
L 2906 4863 
L 3481 4863 
L 3481 0 
L 2906 0 
L 2906 525 
Q 2725 213 2448 61 
Q 2172 -91 1784 -91 
Q 1150 -91 751 415 
Q 353 922 353 1747 
Q 353 2572 751 3078 
Q 1150 3584 1784 3584 
Q 2172 3584 2448 3432 
Q 2725 3281 2906 2969 
z
M 947 1747 
Q 947 1113 1208 752 
Q 1469 391 1925 391 
Q 2381 391 2643 752 
Q 2906 1113 2906 1747 
Q 2906 2381 2643 2742 
Q 2381 3103 1925 3103 
Q 1469 3103 1208 2742 
Q 947 2381 947 1747 
z
" transform="scale(0.015625)"/>
       <path id="DejaVuSans-6b" d="M 581 4863 
L 1159 4863 
L 1159 1991 
L 2875 3500 
L 3609 3500 
L 1753 1863 
L 3688 0 
L 2938 0 
L 1159 1709 
L 1159 0 
L 581 0 
L 581 4863 
z
" transform="scale(0.015625)"/>
       <path id="DejaVuSans-69" d="M 603 3500 
L 1178 3500 
L 1178 0 
L 603 0 
L 603 3500 
z
M 603 4863 
L 1178 4863 
L 1178 4134 
L 603 4134 
L 603 4863 
z
" transform="scale(0.015625)"/>
       <path id="DejaVuSans-74" d="M 1172 4494 
L 1172 3500 
L 2356 3500 
L 2356 3053 
L 1172 3053 
L 1172 1153 
Q 1172 725 1289 603 
Q 1406 481 1766 481 
L 2356 481 
L 2356 0 
L 1766 0 
Q 1100 0 847 248 
Q 594 497 594 1153 
L 594 3053 
L 172 3053 
L 172 3500 
L 594 3500 
L 594 4494 
L 1172 4494 
z
" transform="scale(0.015625)"/>
       <path id="DejaVuSans-5f" d="M 3263 -1063 
L 3263 -1509 
L -63 -1509 
L -63 -1063 
L 3263 -1063 
z
" transform="scale(0.015625)"/>
       <path id="DejaVuSans-70" d="M 1159 525 
L 1159 -1331 
L 581 -1331 
L 581 3500 
L 1159 3500 
L 1159 2969 
Q 1341 3281 1617 3432 
Q 1894 3584 2278 3584 
Q 2916 3584 3314 3078 
Q 3713 2572 3713 1747 
Q 3713 922 3314 415 
Q 2916 -91 2278 -91 
Q 1894 -91 1617 61 
Q 1341 213 1159 525 
z
M 3116 1747 
Q 3116 2381 2855 2742 
Q 2594 3103 2138 3103 
Q 1681 3103 1420 2742 
Q 1159 2381 1159 1747 
Q 1159 1113 1420 752 
Q 1681 391 2138 391 
Q 2594 391 2855 752 
Q 3116 1113 3116 1747 
z
" transform="scale(0.015625)"/>
       <path id="DejaVuSans-63" d="M 3122 3366 
L 3122 2828 
Q 2878 2963 2633 3030 
Q 2388 3097 2138 3097 
Q 1578 3097 1268 2742 
Q 959 2388 959 1747 
Q 959 1106 1268 751 
Q 1578 397 2138 397 
Q 2388 397 2633 464 
Q 2878 531 3122 666 
L 3122 134 
Q 2881 22 2623 -34 
Q 2366 -91 2075 -91 
Q 1284 -91 818 406 
Q 353 903 353 1747 
Q 353 2603 823 3093 
Q 1294 3584 2113 3584 
Q 2378 3584 2631 3529 
Q 2884 3475 3122 3366 
z
" transform="scale(0.015625)"/>
       <path id="DejaVuSans-61" d="M 2194 1759 
Q 1497 1759 1228 1600 
Q 959 1441 959 1056 
Q 959 750 1161 570 
Q 1363 391 1709 391 
Q 2188 391 2477 730 
Q 2766 1069 2766 1631 
L 2766 1759 
L 2194 1759 
z
M 3341 1997 
L 3341 0 
L 2766 0 
L 2766 531 
Q 2569 213 2275 61 
Q 1981 -91 1556 -91 
Q 1019 -91 701 211 
Q 384 513 384 1019 
Q 384 1609 779 1909 
Q 1175 2209 1959 2209 
L 2766 2209 
L 2766 2266 
Q 2766 2663 2505 2880 
Q 2244 3097 1772 3097 
Q 1472 3097 1187 3025 
Q 903 2953 641 2809 
L 641 3341 
Q 956 3463 1253 3523 
Q 1550 3584 1831 3584 
Q 2591 3584 2966 3190 
Q 3341 2797 3341 1997 
z
" transform="scale(0.015625)"/>
       <path id="DejaVuSans-30" d="M 2034 4250 
Q 1547 4250 1301 3770 
Q 1056 3291 1056 2328 
Q 1056 1369 1301 889 
Q 1547 409 2034 409 
Q 2525 409 2770 889 
Q 3016 1369 3016 2328 
Q 3016 3291 2770 3770 
Q 2525 4250 2034 4250 
z
M 2034 4750 
Q 2819 4750 3233 4129 
Q 3647 3509 3647 2328 
Q 3647 1150 3233 529 
Q 2819 -91 2034 -91 
Q 1250 -91 836 529 
Q 422 1150 422 2328 
Q 422 3509 836 4129 
Q 1250 4750 2034 4750 
z
" transform="scale(0.015625)"/>
       <path id="DejaVuSans-2e" d="M 684 794 
L 1344 794 
L 1344 0 
L 684 0 
L 684 794 
z
" transform="scale(0.015625)"/>
       <path id="DejaVuSans-39" d="M 703 97 
L 703 672 
Q 941 559 1184 500 
Q 1428 441 1663 441 
Q 2288 441 2617 861 
Q 2947 1281 2994 2138 
Q 2813 1869 2534 1725 
Q 2256 1581 1919 1581 
Q 1219 1581 811 2004 
Q 403 2428 403 3163 
Q 403 3881 828 4315 
Q 1253 4750 1959 4750 
Q 2769 4750 3195 4129 
Q 3622 3509 3622 2328 
Q 3622 1225 3098 567 
Q 2575 -91 1691 -91 
Q 1453 -91 1209 -44 
Q 966 3 703 97 
z
M 1959 2075 
Q 2384 2075 2632 2365 
Q 2881 2656 2881 3163 
Q 2881 3666 2632 3958 
Q 2384 4250 1959 4250 
Q 1534 4250 1286 3958 
Q 1038 3666 1038 3163 
Q 1038 2656 1286 2365 
Q 1534 2075 1959 2075 
z
" transform="scale(0.015625)"/>
       <path id="DejaVuSans-20" transform="scale(0.015625)"/>
       <path id="DejaVuSans-28" d="M 1984 4856 
Q 1566 4138 1362 3434 
Q 1159 2731 1159 2009 
Q 1159 1288 1364 580 
Q 1569 -128 1984 -844 
L 1484 -844 
Q 1016 -109 783 600 
Q 550 1309 550 2009 
Q 550 2706 781 3412 
Q 1013 4119 1484 4856 
L 1984 4856 
z
" transform="scale(0.015625)"/>
       <path id="DejaVuSans-41" d="M 2188 4044 
L 1331 1722 
L 3047 1722 
L 2188 4044 
z
M 1831 4666 
L 2547 4666 
L 4325 0 
L 3669 0 
L 3244 1197 
L 1141 1197 
L 716 0 
L 50 0 
L 1831 4666 
z
" transform="scale(0.015625)"/>
       <path id="DejaVuSans-55" d="M 556 4666 
L 1191 4666 
L 1191 1831 
Q 1191 1081 1462 751 
Q 1734 422 2344 422 
Q 2950 422 3222 751 
Q 3494 1081 3494 1831 
L 3494 4666 
L 4128 4666 
L 4128 1753 
Q 4128 841 3676 375 
Q 3225 -91 2344 -91 
Q 1459 -91 1007 375 
Q 556 841 556 1753 
L 556 4666 
z
" transform="scale(0.015625)"/>
       <path id="DejaVuSans-43" d="M 4122 4306 
L 4122 3641 
Q 3803 3938 3442 4084 
Q 3081 4231 2675 4231 
Q 1875 4231 1450 3742 
Q 1025 3253 1025 2328 
Q 1025 1406 1450 917 
Q 1875 428 2675 428 
Q 3081 428 3442 575 
Q 3803 722 4122 1019 
L 4122 359 
Q 3791 134 3420 21 
Q 3050 -91 2638 -91 
Q 1578 -91 968 557 
Q 359 1206 359 2328 
Q 359 3453 968 4101 
Q 1578 4750 2638 4750 
Q 3056 4750 3426 4639 
Q 3797 4528 4122 4306 
z
" transform="scale(0.015625)"/>
       <path id="DejaVuSans-3a" d="M 750 794 
L 1409 794 
L 1409 0 
L 750 0 
L 750 794 
z
M 750 3309 
L 1409 3309 
L 1409 2516 
L 750 2516 
L 750 3309 
z
" transform="scale(0.015625)"/>
       <path id="DejaVuSans-33" d="M 2597 2516 
Q 3050 2419 3304 2112 
Q 3559 1806 3559 1356 
Q 3559 666 3084 287 
Q 2609 -91 1734 -91 
Q 1441 -91 1130 -33 
Q 819 25 488 141 
L 488 750 
Q 750 597 1062 519 
Q 1375 441 1716 441 
Q 2309 441 2620 675 
Q 2931 909 2931 1356 
Q 2931 1769 2642 2001 
Q 2353 2234 1838 2234 
L 1294 2234 
L 1294 2753 
L 1863 2753 
Q 2328 2753 2575 2939 
Q 2822 3125 2822 3475 
Q 2822 3834 2567 4026 
Q 2313 4219 1838 4219 
Q 1578 4219 1281 4162 
Q 984 4106 628 3988 
L 628 4550 
Q 988 4650 1302 4700 
Q 1616 4750 1894 4750 
Q 2613 4750 3031 4423 
Q 3450 4097 3450 3541 
Q 3450 3153 3228 2886 
Q 3006 2619 2597 2516 
z
" transform="scale(0.015625)"/>
       <path id="DejaVuSans-32" d="M 1228 531 
L 3431 531 
L 3431 0 
L 469 0 
L 469 531 
Q 828 903 1448 1529 
Q 2069 2156 2228 2338 
Q 2531 2678 2651 2914 
Q 2772 3150 2772 3378 
Q 2772 3750 2511 3984 
Q 2250 4219 1831 4219 
Q 1534 4219 1204 4116 
Q 875 4013 500 3803 
L 500 4441 
Q 881 4594 1212 4672 
Q 1544 4750 1819 4750 
Q 2544 4750 2975 4387 
Q 3406 4025 3406 3419 
Q 3406 3131 3298 2873 
Q 3191 2616 2906 2266 
Q 2828 2175 2409 1742 
Q 1991 1309 1228 531 
z
" transform="scale(0.015625)"/>
       <path id="DejaVuSans-37" d="M 525 4666 
L 3525 4666 
L 3525 4397 
L 1831 0 
L 1172 0 
L 2766 4134 
L 525 4134 
L 525 4666 
z
" transform="scale(0.015625)"/>
       <path id="DejaVuSans-29" d="M 513 4856 
L 1013 4856 
Q 1481 4119 1714 3412 
Q 1947 2706 1947 2009 
Q 1947 1309 1714 600 
Q 1481 -109 1013 -844 
L 513 -844 
Q 928 -128 1133 580 
Q 1338 1288 1338 2009 
Q 1338 2731 1133 3434 
Q 928 4138 513 4856 
z
" transform="scale(0.015625)"/>
      </defs>
      <use xlink:href="#DejaVuSans-72"/>
      <use xlink:href="#DejaVuSans-64" x="39.363281"/>
      <use xlink:href="#DejaVuSans-6b" x="102.839844"/>
      <use xlink:href="#DejaVuSans-69" x="160.75"/>
      <use xlink:href="#DejaVuSans-74" x="188.533203"/>
      <use xlink:href="#DejaVuSans-5f" x="227.742188"/>
      <use xlink:href="#DejaVuSans-70" x="277.742188"/>
      <use xlink:href="#DejaVuSans-63" x="341.21875"/>
      <use xlink:href="#DejaVuSans-61" x="396.199219"/>
      <use xlink:href="#DejaVuSans-30" x="457.478516"/>
      <use xlink:href="#DejaVuSans-2e" x="521.101562"/>
      <use xlink:href="#DejaVuSans-39" x="552.888672"/>
      <use xlink:href="#DejaVuSans-20" x="616.511719"/>
      <use xlink:href="#DejaVuSans-28" x="648.298828"/>
      <use xlink:href="#DejaVuSans-41" x="687.3125"/>
      <use xlink:href="#DejaVuSans-55" x="755.720703"/>
      <use xlink:href="#DejaVuSans-43" x="828.914062"/>
      <use xlink:href="#DejaVuSans-3a" x="898.738281"/>
      <use xlink:href="#DejaVuSans-20" x="932.429688"/>
      <use xlink:href="#DejaVuSans-33" x="964.216797"/>
      <use xlink:href="#DejaVuSans-32" x="1027.839844"/>
      <use xlink:href="#DejaVuSans-2e" x="1091.462891"/>
      <use xlink:href="#DejaVuSans-37" x="1123.25"/>
      <use xlink:href="#DejaVuSans-29" x="1186.873047"/>
     </g>
    </g>
    <g id="LineCollection_12">
     <path d="M 319.421875 331.389063 
L 319.421875 317.389063 
" style="fill: none; stroke: #1f78b4; stroke-width: 1.5"/>
    </g>
    <g id="line2d_22">
     <path d="M 305.421875 324.389063 
L 333.421875 324.389063 
" style="fill: none; stroke: #1f78b4; stroke-width: 1.5; stroke-linecap: square"/>
    </g>
    <g id="line2d_23"/>
    <g id="text_14">
     <!-- rdkit_pca0.8 (AUC: 32.7) -->
     <g transform="translate(344.621875 329.289062) scale(0.14 -0.14)">
      <defs>
       <path id="DejaVuSans-38" d="M 2034 2216 
Q 1584 2216 1326 1975 
Q 1069 1734 1069 1313 
Q 1069 891 1326 650 
Q 1584 409 2034 409 
Q 2484 409 2743 651 
Q 3003 894 3003 1313 
Q 3003 1734 2745 1975 
Q 2488 2216 2034 2216 
z
M 1403 2484 
Q 997 2584 770 2862 
Q 544 3141 544 3541 
Q 544 4100 942 4425 
Q 1341 4750 2034 4750 
Q 2731 4750 3128 4425 
Q 3525 4100 3525 3541 
Q 3525 3141 3298 2862 
Q 3072 2584 2669 2484 
Q 3125 2378 3379 2068 
Q 3634 1759 3634 1313 
Q 3634 634 3220 271 
Q 2806 -91 2034 -91 
Q 1263 -91 848 271 
Q 434 634 434 1313 
Q 434 1759 690 2068 
Q 947 2378 1403 2484 
z
M 1172 3481 
Q 1172 3119 1398 2916 
Q 1625 2713 2034 2713 
Q 2441 2713 2670 2916 
Q 2900 3119 2900 3481 
Q 2900 3844 2670 4047 
Q 2441 4250 2034 4250 
Q 1625 4250 1398 4047 
Q 1172 3844 1172 3481 
z
" transform="scale(0.015625)"/>
      </defs>
      <use xlink:href="#DejaVuSans-72"/>
      <use xlink:href="#DejaVuSans-64" x="39.363281"/>
      <use xlink:href="#DejaVuSans-6b" x="102.839844"/>
      <use xlink:href="#DejaVuSans-69" x="160.75"/>
      <use xlink:href="#DejaVuSans-74" x="188.533203"/>
      <use xlink:href="#DejaVuSans-5f" x="227.742188"/>
      <use xlink:href="#DejaVuSans-70" x="277.742188"/>
      <use xlink:href="#DejaVuSans-63" x="341.21875"/>
      <use xlink:href="#DejaVuSans-61" x="396.199219"/>
      <use xlink:href="#DejaVuSans-30" x="457.478516"/>
      <use xlink:href="#DejaVuSans-2e" x="521.101562"/>
      <use xlink:href="#DejaVuSans-38" x="552.888672"/>
      <use xlink:href="#DejaVuSans-20" x="616.511719"/>
      <use xlink:href="#DejaVuSans-28" x="648.298828"/>
      <use xlink:href="#DejaVuSans-41" x="687.3125"/>
      <use xlink:href="#DejaVuSans-55" x="755.720703"/>
      <use xlink:href="#DejaVuSans-43" x="828.914062"/>
      <use xlink:href="#DejaVuSans-3a" x="898.738281"/>
      <use xlink:href="#DejaVuSans-20" x="932.429688"/>
      <use xlink:href="#DejaVuSans-33" x="964.216797"/>
      <use xlink:href="#DejaVuSans-32" x="1027.839844"/>
      <use xlink:href="#DejaVuSans-2e" x="1091.462891"/>
      <use xlink:href="#DejaVuSans-37" x="1123.25"/>
      <use xlink:href="#DejaVuSans-29" x="1186.873047"/>
     </g>
    </g>
    <g id="LineCollection_13">
     <path d="M 319.421875 352.327813 
L 319.421875 338.327813 
" style="fill: none; stroke: #b2df8a; stroke-width: 1.5"/>
    </g>
    <g id="line2d_24">
     <path d="M 305.421875 345.327813 
L 333.421875 345.327813 
" style="fill: none; stroke: #b2df8a; stroke-width: 1.5; stroke-linecap: square"/>
    </g>
    <g id="line2d_25"/>
    <g id="text_15">
     <!-- mordred_pca0.9 (AUC: 31.3) -->
     <g transform="translate(344.621875 350.227813) scale(0.14 -0.14)">
      <defs>
       <path id="DejaVuSans-6d" d="M 3328 2828 
Q 3544 3216 3844 3400 
Q 4144 3584 4550 3584 
Q 5097 3584 5394 3201 
Q 5691 2819 5691 2113 
L 5691 0 
L 5113 0 
L 5113 2094 
Q 5113 2597 4934 2840 
Q 4756 3084 4391 3084 
Q 3944 3084 3684 2787 
Q 3425 2491 3425 1978 
L 3425 0 
L 2847 0 
L 2847 2094 
Q 2847 2600 2669 2842 
Q 2491 3084 2119 3084 
Q 1678 3084 1418 2786 
Q 1159 2488 1159 1978 
L 1159 0 
L 581 0 
L 581 3500 
L 1159 3500 
L 1159 2956 
Q 1356 3278 1631 3431 
Q 1906 3584 2284 3584 
Q 2666 3584 2933 3390 
Q 3200 3197 3328 2828 
z
" transform="scale(0.015625)"/>
       <path id="DejaVuSans-6f" d="M 1959 3097 
Q 1497 3097 1228 2736 
Q 959 2375 959 1747 
Q 959 1119 1226 758 
Q 1494 397 1959 397 
Q 2419 397 2687 759 
Q 2956 1122 2956 1747 
Q 2956 2369 2687 2733 
Q 2419 3097 1959 3097 
z
M 1959 3584 
Q 2709 3584 3137 3096 
Q 3566 2609 3566 1747 
Q 3566 888 3137 398 
Q 2709 -91 1959 -91 
Q 1206 -91 779 398 
Q 353 888 353 1747 
Q 353 2609 779 3096 
Q 1206 3584 1959 3584 
z
" transform="scale(0.015625)"/>
       <path id="DejaVuSans-65" d="M 3597 1894 
L 3597 1613 
L 953 1613 
Q 991 1019 1311 708 
Q 1631 397 2203 397 
Q 2534 397 2845 478 
Q 3156 559 3463 722 
L 3463 178 
Q 3153 47 2828 -22 
Q 2503 -91 2169 -91 
Q 1331 -91 842 396 
Q 353 884 353 1716 
Q 353 2575 817 3079 
Q 1281 3584 2069 3584 
Q 2775 3584 3186 3129 
Q 3597 2675 3597 1894 
z
M 3022 2063 
Q 3016 2534 2758 2815 
Q 2500 3097 2075 3097 
Q 1594 3097 1305 2825 
Q 1016 2553 972 2059 
L 3022 2063 
z
" transform="scale(0.015625)"/>
       <path id="DejaVuSans-31" d="M 794 531 
L 1825 531 
L 1825 4091 
L 703 3866 
L 703 4441 
L 1819 4666 
L 2450 4666 
L 2450 531 
L 3481 531 
L 3481 0 
L 794 0 
L 794 531 
z
" transform="scale(0.015625)"/>
      </defs>
      <use xlink:href="#DejaVuSans-6d"/>
      <use xlink:href="#DejaVuSans-6f" x="97.412109"/>
      <use xlink:href="#DejaVuSans-72" x="158.59375"/>
      <use xlink:href="#DejaVuSans-64" x="197.957031"/>
      <use xlink:href="#DejaVuSans-72" x="261.433594"/>
      <use xlink:href="#DejaVuSans-65" x="300.296875"/>
      <use xlink:href="#DejaVuSans-64" x="361.820312"/>
      <use xlink:href="#DejaVuSans-5f" x="425.296875"/>
      <use xlink:href="#DejaVuSans-70" x="475.296875"/>
      <use xlink:href="#DejaVuSans-63" x="538.773438"/>
      <use xlink:href="#DejaVuSans-61" x="593.753906"/>
      <use xlink:href="#DejaVuSans-30" x="655.033203"/>
      <use xlink:href="#DejaVuSans-2e" x="718.65625"/>
      <use xlink:href="#DejaVuSans-39" x="750.443359"/>
      <use xlink:href="#DejaVuSans-20" x="814.066406"/>
      <use xlink:href="#DejaVuSans-28" x="845.853516"/>
      <use xlink:href="#DejaVuSans-41" x="884.867188"/>
      <use xlink:href="#DejaVuSans-55" x="953.275391"/>
      <use xlink:href="#DejaVuSans-43" x="1026.46875"/>
      <use xlink:href="#DejaVuSans-3a" x="1096.292969"/>
      <use xlink:href="#DejaVuSans-20" x="1129.984375"/>
      <use xlink:href="#DejaVuSans-33" x="1161.771484"/>
      <use xlink:href="#DejaVuSans-31" x="1225.394531"/>
      <use xlink:href="#DejaVuSans-2e" x="1289.017578"/>
      <use xlink:href="#DejaVuSans-33" x="1320.804688"/>
      <use xlink:href="#DejaVuSans-29" x="1384.427734"/>
     </g>
    </g>
    <g id="LineCollection_14">
     <path d="M 319.421875 373.266563 
L 319.421875 359.266563 
" style="fill: none; stroke: #33a02c; stroke-width: 1.5"/>
    </g>
    <g id="line2d_26">
     <path d="M 305.421875 366.266563 
L 333.421875 366.266563 
" style="fill: none; stroke: #33a02c; stroke-width: 1.5; stroke-linecap: square"/>
    </g>
    <g id="line2d_27"/>
    <g id="text_16">
     <!-- mordred_pca0.8 (AUC: 30.9) -->
     <g transform="translate(344.621875 371.166563) scale(0.14 -0.14)">
      <use xlink:href="#DejaVuSans-6d"/>
      <use xlink:href="#DejaVuSans-6f" x="97.412109"/>
      <use xlink:href="#DejaVuSans-72" x="158.59375"/>
      <use xlink:href="#DejaVuSans-64" x="197.957031"/>
      <use xlink:href="#DejaVuSans-72" x="261.433594"/>
      <use xlink:href="#DejaVuSans-65" x="300.296875"/>
      <use xlink:href="#DejaVuSans-64" x="361.820312"/>
      <use xlink:href="#DejaVuSans-5f" x="425.296875"/>
      <use xlink:href="#DejaVuSans-70" x="475.296875"/>
      <use xlink:href="#DejaVuSans-63" x="538.773438"/>
      <use xlink:href="#DejaVuSans-61" x="593.753906"/>
      <use xlink:href="#DejaVuSans-30" x="655.033203"/>
      <use xlink:href="#DejaVuSans-2e" x="718.65625"/>
      <use xlink:href="#DejaVuSans-38" x="750.443359"/>
      <use xlink:href="#DejaVuSans-20" x="814.066406"/>
      <use xlink:href="#DejaVuSans-28" x="845.853516"/>
      <use xlink:href="#DejaVuSans-41" x="884.867188"/>
      <use xlink:href="#DejaVuSans-55" x="953.275391"/>
      <use xlink:href="#DejaVuSans-43" x="1026.46875"/>
      <use xlink:href="#DejaVuSans-3a" x="1096.292969"/>
      <use xlink:href="#DejaVuSans-20" x="1129.984375"/>
      <use xlink:href="#DejaVuSans-33" x="1161.771484"/>
      <use xlink:href="#DejaVuSans-30" x="1225.394531"/>
      <use xlink:href="#DejaVuSans-2e" x="1289.017578"/>
      <use xlink:href="#DejaVuSans-39" x="1320.804688"/>
      <use xlink:href="#DejaVuSans-29" x="1384.427734"/>
     </g>
    </g>
    <g id="LineCollection_15">
     <path d="M 319.421875 394.205313 
L 319.421875 380.205313 
" style="fill: none; stroke: #cab2d6; stroke-width: 1.5"/>
    </g>
    <g id="line2d_28">
     <path d="M 305.421875 387.205313 
L 333.421875 387.205313 
" style="fill: none; stroke: #cab2d6; stroke-width: 1.5; stroke-linecap: square"/>
    </g>
    <g id="line2d_29"/>
    <g id="text_17">
     <!-- mol2vec_pca0.9 (AUC: 30.8) -->
     <g transform="translate(344.621875 392.105313) scale(0.14 -0.14)">
      <defs>
       <path id="DejaVuSans-6c" d="M 603 4863 
L 1178 4863 
L 1178 0 
L 603 0 
L 603 4863 
z
" transform="scale(0.015625)"/>
       <path id="DejaVuSans-76" d="M 191 3500 
L 800 3500 
L 1894 563 
L 2988 3500 
L 3597 3500 
L 2284 0 
L 1503 0 
L 191 3500 
z
" transform="scale(0.015625)"/>
      </defs>
      <use xlink:href="#DejaVuSans-6d"/>
      <use xlink:href="#DejaVuSans-6f" x="97.412109"/>
      <use xlink:href="#DejaVuSans-6c" x="158.59375"/>
      <use xlink:href="#DejaVuSans-32" x="186.376953"/>
      <use xlink:href="#DejaVuSans-76" x="250"/>
      <use xlink:href="#DejaVuSans-65" x="309.179688"/>
      <use xlink:href="#DejaVuSans-63" x="370.703125"/>
      <use xlink:href="#DejaVuSans-5f" x="425.683594"/>
      <use xlink:href="#DejaVuSans-70" x="475.683594"/>
      <use xlink:href="#DejaVuSans-63" x="539.160156"/>
      <use xlink:href="#DejaVuSans-61" x="594.140625"/>
      <use xlink:href="#DejaVuSans-30" x="655.419922"/>
      <use xlink:href="#DejaVuSans-2e" x="719.042969"/>
      <use xlink:href="#DejaVuSans-39" x="750.830078"/>
      <use xlink:href="#DejaVuSans-20" x="814.453125"/>
      <use xlink:href="#DejaVuSans-28" x="846.240234"/>
      <use xlink:href="#DejaVuSans-41" x="885.253906"/>
      <use xlink:href="#DejaVuSans-55" x="953.662109"/>
      <use xlink:href="#DejaVuSans-43" x="1026.855469"/>
      <use xlink:href="#DejaVuSans-3a" x="1096.679688"/>
      <use xlink:href="#DejaVuSans-20" x="1130.371094"/>
      <use xlink:href="#DejaVuSans-33" x="1162.158203"/>
      <use xlink:href="#DejaVuSans-30" x="1225.78125"/>
      <use xlink:href="#DejaVuSans-2e" x="1289.404297"/>
      <use xlink:href="#DejaVuSans-38" x="1321.191406"/>
      <use xlink:href="#DejaVuSans-29" x="1384.814453"/>
     </g>
    </g>
    <g id="LineCollection_16">
     <path d="M 319.421875 415.144063 
L 319.421875 401.144063 
" style="fill: none; stroke: #6a3d9a; stroke-width: 1.5"/>
    </g>
    <g id="line2d_30">
     <path d="M 305.421875 408.144063 
L 333.421875 408.144063 
" style="fill: none; stroke: #6a3d9a; stroke-width: 1.5; stroke-linecap: square"/>
    </g>
    <g id="line2d_31"/>
    <g id="text_18">
     <!-- mol2vec_pca0.8 (AUC: 29.7) -->
     <g transform="translate(344.621875 413.044062) scale(0.14 -0.14)">
      <use xlink:href="#DejaVuSans-6d"/>
      <use xlink:href="#DejaVuSans-6f" x="97.412109"/>
      <use xlink:href="#DejaVuSans-6c" x="158.59375"/>
      <use xlink:href="#DejaVuSans-32" x="186.376953"/>
      <use xlink:href="#DejaVuSans-76" x="250"/>
      <use xlink:href="#DejaVuSans-65" x="309.179688"/>
      <use xlink:href="#DejaVuSans-63" x="370.703125"/>
      <use xlink:href="#DejaVuSans-5f" x="425.683594"/>
      <use xlink:href="#DejaVuSans-70" x="475.683594"/>
      <use xlink:href="#DejaVuSans-63" x="539.160156"/>
      <use xlink:href="#DejaVuSans-61" x="594.140625"/>
      <use xlink:href="#DejaVuSans-30" x="655.419922"/>
      <use xlink:href="#DejaVuSans-2e" x="719.042969"/>
      <use xlink:href="#DejaVuSans-38" x="750.830078"/>
      <use xlink:href="#DejaVuSans-20" x="814.453125"/>
      <use xlink:href="#DejaVuSans-28" x="846.240234"/>
      <use xlink:href="#DejaVuSans-41" x="885.253906"/>
      <use xlink:href="#DejaVuSans-55" x="953.662109"/>
      <use xlink:href="#DejaVuSans-43" x="1026.855469"/>
      <use xlink:href="#DejaVuSans-3a" x="1096.679688"/>
      <use xlink:href="#DejaVuSans-20" x="1130.371094"/>
      <use xlink:href="#DejaVuSans-32" x="1162.158203"/>
      <use xlink:href="#DejaVuSans-39" x="1225.78125"/>
      <use xlink:href="#DejaVuSans-2e" x="1289.404297"/>
      <use xlink:href="#DejaVuSans-37" x="1321.191406"/>
      <use xlink:href="#DejaVuSans-29" x="1384.814453"/>
     </g>
    </g>
    <g id="LineCollection_17">
     <path d="M 319.421875 436.082813 
L 319.421875 422.082813 
" style="fill: none; stroke: #fb9a99; stroke-width: 1.5"/>
    </g>
    <g id="line2d_32">
     <path d="M 305.421875 429.082813 
L 333.421875 429.082813 
" style="fill: none; stroke: #fb9a99; stroke-width: 1.5; stroke-linecap: square"/>
    </g>
    <g id="line2d_33"/>
    <g id="text_19">
     <!-- ecfp_pca0.9 (AUC: 27.9) -->
     <g transform="translate(344.621875 433.982813) scale(0.14 -0.14)">
      <defs>
       <path id="DejaVuSans-66" d="M 2375 4863 
L 2375 4384 
L 1825 4384 
Q 1516 4384 1395 4259 
Q 1275 4134 1275 3809 
L 1275 3500 
L 2222 3500 
L 2222 3053 
L 1275 3053 
L 1275 0 
L 697 0 
L 697 3053 
L 147 3053 
L 147 3500 
L 697 3500 
L 697 3744 
Q 697 4328 969 4595 
Q 1241 4863 1831 4863 
L 2375 4863 
z
" transform="scale(0.015625)"/>
      </defs>
      <use xlink:href="#DejaVuSans-65"/>
      <use xlink:href="#DejaVuSans-63" x="61.523438"/>
      <use xlink:href="#DejaVuSans-66" x="116.503906"/>
      <use xlink:href="#DejaVuSans-70" x="151.708984"/>
      <use xlink:href="#DejaVuSans-5f" x="215.185547"/>
      <use xlink:href="#DejaVuSans-70" x="265.185547"/>
      <use xlink:href="#DejaVuSans-63" x="328.662109"/>
      <use xlink:href="#DejaVuSans-61" x="383.642578"/>
      <use xlink:href="#DejaVuSans-30" x="444.921875"/>
      <use xlink:href="#DejaVuSans-2e" x="508.544922"/>
      <use xlink:href="#DejaVuSans-39" x="540.332031"/>
      <use xlink:href="#DejaVuSans-20" x="603.955078"/>
      <use xlink:href="#DejaVuSans-28" x="635.742188"/>
      <use xlink:href="#DejaVuSans-41" x="674.755859"/>
      <use xlink:href="#DejaVuSans-55" x="743.164062"/>
      <use xlink:href="#DejaVuSans-43" x="816.357422"/>
      <use xlink:href="#DejaVuSans-3a" x="886.181641"/>
      <use xlink:href="#DejaVuSans-20" x="919.873047"/>
      <use xlink:href="#DejaVuSans-32" x="951.660156"/>
      <use xlink:href="#DejaVuSans-37" x="1015.283203"/>
      <use xlink:href="#DejaVuSans-2e" x="1078.90625"/>
      <use xlink:href="#DejaVuSans-39" x="1110.693359"/>
      <use xlink:href="#DejaVuSans-29" x="1174.316406"/>
     </g>
    </g>
    <g id="LineCollection_18">
     <path d="M 319.421875 457.021563 
L 319.421875 443.021563 
" style="fill: none; stroke: #e31a1c; stroke-width: 1.5"/>
    </g>
    <g id="line2d_34">
     <path d="M 305.421875 450.021563 
L 333.421875 450.021563 
" style="fill: none; stroke: #e31a1c; stroke-width: 1.5; stroke-linecap: square"/>
    </g>
    <g id="line2d_35"/>
    <g id="text_20">
     <!-- ecfp_pca0.8 (AUC: 28.3) -->
     <g transform="translate(344.621875 454.921563) scale(0.14 -0.14)">
      <use xlink:href="#DejaVuSans-65"/>
      <use xlink:href="#DejaVuSans-63" x="61.523438"/>
      <use xlink:href="#DejaVuSans-66" x="116.503906"/>
      <use xlink:href="#DejaVuSans-70" x="151.708984"/>
      <use xlink:href="#DejaVuSans-5f" x="215.185547"/>
      <use xlink:href="#DejaVuSans-70" x="265.185547"/>
      <use xlink:href="#DejaVuSans-63" x="328.662109"/>
      <use xlink:href="#DejaVuSans-61" x="383.642578"/>
      <use xlink:href="#DejaVuSans-30" x="444.921875"/>
      <use xlink:href="#DejaVuSans-2e" x="508.544922"/>
      <use xlink:href="#DejaVuSans-38" x="540.332031"/>
      <use xlink:href="#DejaVuSans-20" x="603.955078"/>
      <use xlink:href="#DejaVuSans-28" x="635.742188"/>
      <use xlink:href="#DejaVuSans-41" x="674.755859"/>
      <use xlink:href="#DejaVuSans-55" x="743.164062"/>
      <use xlink:href="#DejaVuSans-43" x="816.357422"/>
      <use xlink:href="#DejaVuSans-3a" x="886.181641"/>
      <use xlink:href="#DejaVuSans-20" x="919.873047"/>
      <use xlink:href="#DejaVuSans-32" x="951.660156"/>
      <use xlink:href="#DejaVuSans-38" x="1015.283203"/>
      <use xlink:href="#DejaVuSans-2e" x="1078.90625"/>
      <use xlink:href="#DejaVuSans-33" x="1110.693359"/>
      <use xlink:href="#DejaVuSans-29" x="1174.316406"/>
     </g>
    </g>
    <g id="LineCollection_19">
     <path d="M 319.421875 477.960313 
L 319.421875 463.960313 
" style="fill: none; stroke: #fdbf6f; stroke-width: 1.5"/>
    </g>
    <g id="line2d_36">
     <path d="M 305.421875 470.960313 
L 333.421875 470.960313 
" style="fill: none; stroke: #fdbf6f; stroke-width: 1.5; stroke-linecap: square"/>
    </g>
    <g id="line2d_37"/>
    <g id="text_21">
     <!-- e3fp_pca0.9 (AUC: 28.3) -->
     <g transform="translate(344.621875 475.860313) scale(0.14 -0.14)">
      <use xlink:href="#DejaVuSans-65"/>
      <use xlink:href="#DejaVuSans-33" x="61.523438"/>
      <use xlink:href="#DejaVuSans-66" x="125.146484"/>
      <use xlink:href="#DejaVuSans-70" x="160.351562"/>
      <use xlink:href="#DejaVuSans-5f" x="223.828125"/>
      <use xlink:href="#DejaVuSans-70" x="273.828125"/>
      <use xlink:href="#DejaVuSans-63" x="337.304688"/>
      <use xlink:href="#DejaVuSans-61" x="392.285156"/>
      <use xlink:href="#DejaVuSans-30" x="453.564453"/>
      <use xlink:href="#DejaVuSans-2e" x="517.1875"/>
      <use xlink:href="#DejaVuSans-39" x="548.974609"/>
      <use xlink:href="#DejaVuSans-20" x="612.597656"/>
      <use xlink:href="#DejaVuSans-28" x="644.384766"/>
      <use xlink:href="#DejaVuSans-41" x="683.398438"/>
      <use xlink:href="#DejaVuSans-55" x="751.806641"/>
      <use xlink:href="#DejaVuSans-43" x="825"/>
      <use xlink:href="#DejaVuSans-3a" x="894.824219"/>
      <use xlink:href="#DejaVuSans-20" x="928.515625"/>
      <use xlink:href="#DejaVuSans-32" x="960.302734"/>
      <use xlink:href="#DejaVuSans-38" x="1023.925781"/>
      <use xlink:href="#DejaVuSans-2e" x="1087.548828"/>
      <use xlink:href="#DejaVuSans-33" x="1119.335938"/>
      <use xlink:href="#DejaVuSans-29" x="1182.958984"/>
     </g>
    </g>
    <g id="LineCollection_20">
     <path d="M 319.421875 498.899063 
L 319.421875 484.899063 
" style="fill: none; stroke: #ff7f00; stroke-width: 1.5"/>
    </g>
    <g id="line2d_38">
     <path d="M 305.421875 491.899063 
L 333.421875 491.899063 
" style="fill: none; stroke: #ff7f00; stroke-width: 1.5; stroke-linecap: square"/>
    </g>
    <g id="line2d_39"/>
    <g id="text_22">
     <!-- e3fp_pca0.8 (AUC: 27.8) -->
     <g transform="translate(344.621875 496.799062) scale(0.14 -0.14)">
      <use xlink:href="#DejaVuSans-65"/>
      <use xlink:href="#DejaVuSans-33" x="61.523438"/>
      <use xlink:href="#DejaVuSans-66" x="125.146484"/>
      <use xlink:href="#DejaVuSans-70" x="160.351562"/>
      <use xlink:href="#DejaVuSans-5f" x="223.828125"/>
      <use xlink:href="#DejaVuSans-70" x="273.828125"/>
      <use xlink:href="#DejaVuSans-63" x="337.304688"/>
      <use xlink:href="#DejaVuSans-61" x="392.285156"/>
      <use xlink:href="#DejaVuSans-30" x="453.564453"/>
      <use xlink:href="#DejaVuSans-2e" x="517.1875"/>
      <use xlink:href="#DejaVuSans-38" x="548.974609"/>
      <use xlink:href="#DejaVuSans-20" x="612.597656"/>
      <use xlink:href="#DejaVuSans-28" x="644.384766"/>
      <use xlink:href="#DejaVuSans-41" x="683.398438"/>
      <use xlink:href="#DejaVuSans-55" x="751.806641"/>
      <use xlink:href="#DejaVuSans-43" x="825"/>
      <use xlink:href="#DejaVuSans-3a" x="894.824219"/>
      <use xlink:href="#DejaVuSans-20" x="928.515625"/>
      <use xlink:href="#DejaVuSans-32" x="960.302734"/>
      <use xlink:href="#DejaVuSans-37" x="1023.925781"/>
      <use xlink:href="#DejaVuSans-2e" x="1087.548828"/>
      <use xlink:href="#DejaVuSans-38" x="1119.335938"/>
      <use xlink:href="#DejaVuSans-29" x="1182.958984"/>
     </g>
    </g>
   </g>
  </g>
  <g id="text_23">
   <!-- Lipophilicity Optimization (PCA Features) -->
   <g transform="translate(54.95625 26.716875) scale(0.2 -0.2)">
    <defs>
     <path id="DejaVuSans-Bold-4c" d="M 588 4666 
L 1791 4666 
L 1791 909 
L 3903 909 
L 3903 0 
L 588 0 
L 588 4666 
z
" transform="scale(0.015625)"/>
     <path id="DejaVuSans-Bold-70" d="M 1656 506 
L 1656 -1331 
L 538 -1331 
L 538 3500 
L 1656 3500 
L 1656 2988 
Q 1888 3294 2169 3439 
Q 2450 3584 2816 3584 
Q 3463 3584 3878 3070 
Q 4294 2556 4294 1747 
Q 4294 938 3878 423 
Q 3463 -91 2816 -91 
Q 2450 -91 2169 54 
Q 1888 200 1656 506 
z
M 2400 2772 
Q 2041 2772 1848 2508 
Q 1656 2244 1656 1747 
Q 1656 1250 1848 986 
Q 2041 722 2400 722 
Q 2759 722 2948 984 
Q 3138 1247 3138 1747 
Q 3138 2247 2948 2509 
Q 2759 2772 2400 2772 
z
" transform="scale(0.015625)"/>
     <path id="DejaVuSans-Bold-68" d="M 4056 2131 
L 4056 0 
L 2931 0 
L 2931 347 
L 2931 1625 
Q 2931 2084 2911 2256 
Q 2891 2428 2841 2509 
Q 2775 2619 2662 2680 
Q 2550 2741 2406 2741 
Q 2056 2741 1856 2470 
Q 1656 2200 1656 1722 
L 1656 0 
L 538 0 
L 538 4863 
L 1656 4863 
L 1656 2988 
Q 1909 3294 2193 3439 
Q 2478 3584 2822 3584 
Q 3428 3584 3742 3212 
Q 4056 2841 4056 2131 
z
" transform="scale(0.015625)"/>
     <path id="DejaVuSans-Bold-79" d="M 78 3500 
L 1197 3500 
L 2138 1125 
L 2938 3500 
L 4056 3500 
L 2584 -331 
Q 2363 -916 2067 -1148 
Q 1772 -1381 1288 -1381 
L 641 -1381 
L 641 -647 
L 991 -647 
Q 1275 -647 1404 -556 
Q 1534 -466 1606 -231 
L 1638 -134 
L 78 3500 
z
" transform="scale(0.015625)"/>
     <path id="DejaVuSans-Bold-7a" d="M 366 3500 
L 3419 3500 
L 3419 2719 
L 1575 800 
L 3419 800 
L 3419 0 
L 288 0 
L 288 781 
L 2131 2700 
L 366 2700 
L 366 3500 
z
" transform="scale(0.015625)"/>
     <path id="DejaVuSans-Bold-28" d="M 2413 -844 
L 1484 -844 
Q 1006 -72 778 623 
Q 550 1319 550 2003 
Q 550 2688 779 3389 
Q 1009 4091 1484 4856 
L 2413 4856 
Q 2013 4116 1813 3408 
Q 1613 2700 1613 2009 
Q 1613 1319 1811 609 
Q 2009 -100 2413 -844 
z
" transform="scale(0.015625)"/>
     <path id="DejaVuSans-Bold-43" d="M 4288 256 
Q 3956 84 3597 -3 
Q 3238 -91 2847 -91 
Q 1681 -91 1000 561 
Q 319 1213 319 2328 
Q 319 3447 1000 4098 
Q 1681 4750 2847 4750 
Q 3238 4750 3597 4662 
Q 3956 4575 4288 4403 
L 4288 3438 
Q 3953 3666 3628 3772 
Q 3303 3878 2944 3878 
Q 2300 3878 1931 3465 
Q 1563 3053 1563 2328 
Q 1563 1606 1931 1193 
Q 2300 781 2944 781 
Q 3303 781 3628 887 
Q 3953 994 4288 1222 
L 4288 256 
z
" transform="scale(0.015625)"/>
     <path id="DejaVuSans-Bold-41" d="M 3419 850 
L 1538 850 
L 1241 0 
L 31 0 
L 1759 4666 
L 3194 4666 
L 4922 0 
L 3713 0 
L 3419 850 
z
M 1838 1716 
L 3116 1716 
L 2478 3572 
L 1838 1716 
z
" transform="scale(0.015625)"/>
     <path id="DejaVuSans-Bold-46" d="M 588 4666 
L 3834 4666 
L 3834 3756 
L 1791 3756 
L 1791 2888 
L 3713 2888 
L 3713 1978 
L 1791 1978 
L 1791 0 
L 588 0 
L 588 4666 
z
" transform="scale(0.015625)"/>
     <path id="DejaVuSans-Bold-29" d="M 513 -844 
Q 913 -100 1113 609 
Q 1313 1319 1313 2009 
Q 1313 2700 1113 3408 
Q 913 4116 513 4856 
L 1441 4856 
Q 1916 4091 2145 3389 
Q 2375 2688 2375 2003 
Q 2375 1319 2147 623 
Q 1919 -72 1441 -844 
L 513 -844 
z
" transform="scale(0.015625)"/>
    </defs>
    <use xlink:href="#DejaVuSans-Bold-4c"/>
    <use xlink:href="#DejaVuSans-Bold-69" x="63.720703"/>
    <use xlink:href="#DejaVuSans-Bold-70" x="97.998047"/>
    <use xlink:href="#DejaVuSans-Bold-6f" x="169.580078"/>
    <use xlink:href="#DejaVuSans-Bold-70" x="238.28125"/>
    <use xlink:href="#DejaVuSans-Bold-68" x="309.863281"/>
    <use xlink:href="#DejaVuSans-Bold-69" x="381.054688"/>
    <use xlink:href="#DejaVuSans-Bold-6c" x="415.332031"/>
    <use xlink:href="#DejaVuSans-Bold-69" x="449.609375"/>
    <use xlink:href="#DejaVuSans-Bold-63" x="483.886719"/>
    <use xlink:href="#DejaVuSans-Bold-69" x="543.164062"/>
    <use xlink:href="#DejaVuSans-Bold-74" x="577.441406"/>
    <use xlink:href="#DejaVuSans-Bold-79" x="625.244141"/>
    <use xlink:href="#DejaVuSans-Bold-20" x="690.429688"/>
    <use xlink:href="#DejaVuSans-Bold-4f" x="725.244141"/>
    <use xlink:href="#DejaVuSans-Bold-70" x="810.253906"/>
    <use xlink:href="#DejaVuSans-Bold-74" x="881.835938"/>
    <use xlink:href="#DejaVuSans-Bold-69" x="929.638672"/>
    <use xlink:href="#DejaVuSans-Bold-6d" x="963.916016"/>
    <use xlink:href="#DejaVuSans-Bold-69" x="1068.115234"/>
    <use xlink:href="#DejaVuSans-Bold-7a" x="1102.392578"/>
    <use xlink:href="#DejaVuSans-Bold-61" x="1160.595703"/>
    <use xlink:href="#DejaVuSans-Bold-74" x="1228.076172"/>
    <use xlink:href="#DejaVuSans-Bold-69" x="1275.878906"/>
    <use xlink:href="#DejaVuSans-Bold-6f" x="1310.15625"/>
    <use xlink:href="#DejaVuSans-Bold-6e" x="1378.857422"/>
    <use xlink:href="#DejaVuSans-Bold-20" x="1450.048828"/>
    <use xlink:href="#DejaVuSans-Bold-28" x="1484.863281"/>
    <use xlink:href="#DejaVuSans-Bold-50" x="1530.566406"/>
    <use xlink:href="#DejaVuSans-Bold-43" x="1603.857422"/>
    <use xlink:href="#DejaVuSans-Bold-41" x="1677.246094"/>
    <use xlink:href="#DejaVuSans-Bold-20" x="1754.638672"/>
    <use xlink:href="#DejaVuSans-Bold-46" x="1789.453125"/>
    <use xlink:href="#DejaVuSans-Bold-65" x="1853.763672"/>
    <use xlink:href="#DejaVuSans-Bold-61" x="1921.585938"/>
    <use xlink:href="#DejaVuSans-Bold-74" x="1989.066406"/>
    <use xlink:href="#DejaVuSans-Bold-75" x="2036.869141"/>
    <use xlink:href="#DejaVuSans-Bold-72" x="2108.060547"/>
    <use xlink:href="#DejaVuSans-Bold-65" x="2157.376953"/>
    <use xlink:href="#DejaVuSans-Bold-73" x="2225.199219"/>
    <use xlink:href="#DejaVuSans-Bold-29" x="2284.720703"/>
   </g>
  </g>
 </g>
 <defs>
  <clipPath id="p6cff1e0d32">
   <rect x="74.37" y="75.84" width="482.19" height="436.86"/>
  </clipPath>
 </defs>
</svg>
